<svg xmlns="http://www.w3.org/2000/svg" xmlns:xlink="http://www.w3.org/1999/xlink" xmlns:lucid="lucid" width="940.5" height="513"><g transform="translate(-539.5 -479.5)" lucid:page-tab-id="WnoQi_O5mUtq"><path d="M0 0h1760v1360H0z" fill="#fff"/><path d="M1270 671.65V919" stroke="#333" fill="none"/><path d="M1270 649.5l12.5 21.65h-25z" stroke="#333" fill="#fff"/><path d="M1270.47 919.5h-.94v-.5h.94z" stroke="#333" stroke-width=".05" fill="#333"/><path d="M1230 671.65V815" stroke="#333" fill="none"/><path d="M1230 649.5l12.5 21.65h-25z" stroke="#333" fill="#fff"/><path d="M1230.47 815.5h-.94v-.5h.94z" stroke="#333" stroke-width=".05" fill="#333"/><path d="M540 488a8 8 0 0 1 8-8h284a8 8 0 0 1 8 8v152a8 8 0 0 1-8 8H548a8 8 0 0 1-8-8z" fill="#fff"/><path d="M540 488a8 8 0 0 1 8-8h284a8 8 0 0 1 8 8v152a8 8 0 0 1-8 8H548a8 8 0 0 1-8-8zM540 520h300" stroke="#333" fill="none"/><use xlink:href="#a" transform="matrix(1,0,0,1,550,480) translate(1.80517578125 26.5478515625)"/><use xlink:href="#b" transform="matrix(1,0,0,1,550,480) translate(154.55908203125 26.5478515625)"/><use xlink:href="#c" transform="matrix(1,0,0,1,545,522.5) translate(47.61279296875 20.0478515625)"/><use xlink:href="#d" transform="matrix(1,0,0,1,545,554.5) translate(48.9267578125 20.0478515625)"/><use xlink:href="#e" transform="matrix(1,0,0,1,545,586.5) translate(70.0908203125 20.0478515625)"/><use xlink:href="#f" transform="matrix(1,0,0,1,545,618.5) translate(137.2216796875 20.0478515625)"/><path d="M540 788a8 8 0 0 1 8-8h284a8 8 0 0 1 8 8v152a8 8 0 0 1-8 8H548a8 8 0 0 1-8-8z" fill="#fff"/><path d="M540 788a8 8 0 0 1 8-8h284a8 8 0 0 1 8 8v152a8 8 0 0 1-8 8H548a8 8 0 0 1-8-8zM540 820h300" stroke="#333" fill="none"/><use xlink:href="#g" transform="matrix(1,0,0,1,550,780) translate(80.78369140625 26.5478515625)"/><use xlink:href="#c" transform="matrix(1,0,0,1,545,822.5) translate(47.61279296875 20.0478515625)"/><use xlink:href="#d" transform="matrix(1,0,0,1,545,854.5) translate(48.9267578125 20.0478515625)"/><use xlink:href="#e" transform="matrix(1,0,0,1,545,886.5) translate(70.0908203125 20.0478515625)"/><use xlink:href="#f" transform="matrix(1,0,0,1,545,918.5) translate(137.2216796875 20.0478515625)"/><path d="M690 671.65V779" stroke="#333" fill="none"/><path d="M690 649.5l12.5 21.65h-25z" stroke="#333" fill="#fff"/><path d="M690.48 779.5h-.96v-.5h.96z" stroke="#333" stroke-width=".05" fill="#333"/><path d="M640 692a8 8 0 0 1 8-8h224a8 8 0 0 1 8 8v44a8 8 0 0 1-8 8H648a8 8 0 0 1-8-8z" fill="none"/><use xlink:href="#h" transform="matrix(1,0,0,1,640,684) translate(70.70654296875 36.5478515625)"/><path d="M1080 488a8 8 0 0 1 8-8h284a8 8 0 0 1 8 8v152a8 8 0 0 1-8 8h-284a8 8 0 0 1-8-8z" fill="#fff"/><path d="M1080 488a8 8 0 0 1 8-8h284a8 8 0 0 1 8 8v152a8 8 0 0 1-8 8h-284a8 8 0 0 1-8-8zM1080 520h300" stroke="#333" fill="none"/><use xlink:href="#i" transform="matrix(1,0,0,1,1090,480) translate(31.490234375 26.5478515625)"/><use xlink:href="#b" transform="matrix(1,0,0,1,1090,480) translate(124.8740234375 26.5478515625)"/><use xlink:href="#j" transform="matrix(1,0,0,1,1085,522.5) translate(96.47119140625 20.0478515625)"/><use xlink:href="#k" transform="matrix(1,0,0,1,1085,522.5) translate(171.36279296875 20.0478515625)"/><use xlink:href="#l" transform="matrix(1,0,0,1,1085,554.5) translate(98.04443359375 20.0478515625)"/><use xlink:href="#k" transform="matrix(1,0,0,1,1085,554.5) translate(169.78955078125 20.0478515625)"/><use xlink:href="#m" transform="matrix(1,0,0,1,1085,586.5) translate(49.3662109375 20.0478515625)"/><use xlink:href="#n" transform="matrix(1,0,0,1,1085,586.5) translate(66.337890625 20.0478515625)"/><use xlink:href="#o" transform="matrix(1,0,0,1,1085,586.5) translate(178.3896484375 20.0478515625)"/><use xlink:href="#p" transform="matrix(1,0,0,1,1085,586.5) translate(188.6376953125 20.0478515625)"/><use xlink:href="#f" transform="matrix(1,0,0,1,1085,618.5) translate(137.2216796875 20.0478515625)"/><path d="M1060 728a8 8 0 0 1 8-8h204a8 8 0 0 1 8 8v56a8 8 0 0 1-8 8h-204a8 8 0 0 1-8-8z" fill="#fff"/><path d="M1060 728a8 8 0 0 1 8-8h204a8 8 0 0 1 8 8v56a8 8 0 0 1-8 8h-204a8 8 0 0 1-8-8zM1060 760h220" stroke="#333" fill="none"/><use xlink:href="#q" transform="matrix(1,0,0,1,1070,720) translate(43.7236328125 26.5478515625)"/><use xlink:href="#f" transform="matrix(1,0,0,1,1065,762.5) translate(97.2216796875 20.0478515625)"/><path d="M1170 671.65V719" stroke="#333" fill="none"/><path d="M1170 649.5l12.5 21.65h-25z" stroke="#333" fill="#fff"/><path d="M1170.47 719.5h-.94v-.5h.94z" stroke="#333" stroke-width=".05" fill="#333"/><path d="M1240 752a8 8 0 0 1 8-8h224a8 8 0 0 1 8 8v44a8 8 0 0 1-8 8h-224a8 8 0 0 1-8-8z" fill="none"/><use xlink:href="#h" transform="matrix(1,0,0,1,1240,744) translate(70.70654296875 36.5478515625)"/><path d="M1120 824a8 8 0 0 1 8-8h204a8 8 0 0 1 8 8v56a8 8 0 0 1-8 8h-204a8 8 0 0 1-8-8z" fill="#fff"/><path d="M1120 824a8 8 0 0 1 8-8h204a8 8 0 0 1 8 8v56a8 8 0 0 1-8 8h-204a8 8 0 0 1-8-8zM1120 856h220" stroke="#333" fill="none"/><use xlink:href="#r" transform="matrix(1,0,0,1,1130,816) translate(58.81884765625 26.5478515625)"/><use xlink:href="#f" transform="matrix(1,0,0,1,1125,858.5) translate(97.2216796875 20.0478515625)"/><path d="M1160 928a8 8 0 0 1 8-8h204a8 8 0 0 1 8 8v56a8 8 0 0 1-8 8h-204a8 8 0 0 1-8-8z" fill="#fff"/><path d="M1160 928a8 8 0 0 1 8-8h204a8 8 0 0 1 8 8v56a8 8 0 0 1-8 8h-204a8 8 0 0 1-8-8zM1160 960h220" stroke="#333" fill="none"/><use xlink:href="#s" transform="matrix(1,0,0,1,1170,920) translate(29.353515625 26.5478515625)"/><g><use xlink:href="#f" transform="matrix(1,0,0,1,1165,962.5) translate(97.2216796875 20.0478515625)"/></g><path d="M841 568h224" stroke="#333" fill="none"/><path d="M841 568.5h-.5v-.96h.5z" stroke="#333" stroke-width=".05" fill="#333"/><path d="M1078.5 568l-13 7.5v-15z" stroke="#333" fill="#333"/><path d="M840 528a8 8 0 0 1 8-8h224a8 8 0 0 1 8 8v44a8 8 0 0 1-8 8H848a8 8 0 0 1-8-8z" fill="none"/><g><use xlink:href="#t" transform="matrix(1,0,0,1,840,520) translate(99.93017578125 36.5478515625)"/></g><defs><path d="M370-1490V0H180v-1490h190" id="u"/><path d="M645 0H180v-1490h484c435 0 692 280 692 742 0 466-257 748-711 748zM370-168h263c363 0 539-218 539-580 0-358-176-574-521-574H370v1154" id="v"/><path d="M471 26C259 26 90-98 90-318c0-256 228-303 435-329 202-27 287-16 287-108 0-139-79-219-234-219-161 0-248 86-283 164l-173-57c86-203 278-265 451-265 150 0 419 46 419 395V0H815v-152h-12C765-73 660 26 471 26zm31-159c199 0 310-134 310-271v-155c-30 35-226 55-295 64-131 17-246 59-246 186 0 116 97 176 231 176" id="w"/><path d="M598-1118v154H368v674c0 100 37 144 132 144 23 0 62-6 92-12L629-6c-37 13-88 20-134 20-193 0-307-107-307-290v-688H20v-154h168v-266h180v266h230" id="x"/><path d="M677 24c-213 0-288-135-325-197h-20V0H158v-1490h180v551h14c37-59 106-193 324-193 279 0 474 222 474 576 0 356-194 580-473 580zm-27-161c209 0 317-186 317-421 0-232-105-413-317-413-206 0-314 166-314 413 0 249 111 421 314 421" id="y"/><path d="M538 24C308 24 148-78 108-271l171-41c32 123 123 178 257 178 156 0 256-77 256-169 0-77-54-128-164-154l-186-44c-203-48-300-148-300-305 0-192 176-326 414-326 230 0 351 112 402 269l-163 42c-31-80-94-158-238-158-133 0-233 69-233 162 0 83 57 129 188 160l169 40c203 48 298 149 298 302 0 196-179 339-441 339" id="z"/><path d="M628 24c-324 0-524-230-524-574 0-343 198-582 503-582 237 0 487 146 487 559v75H286c9 234 145 362 343 362 132 0 231-58 273-172l174 48C1024-91 857 24 628 24zM287-650h624c-17-190-120-322-304-322-192 0-309 151-320 322" id="A"/><path d="M180 0v-1490h901v168H370v510h643v168H370V0H180" id="B"/><path d="M613 24c-304 0-509-231-509-576 0-350 205-580 509-580 216 0 392 114 453 309l-173 49c-33-115-133-197-280-197-223 0-326 196-326 419 0 220 103 415 326 415 150 0 252-85 285-206l172 49C1010-95 832 24 613 24" id="C"/><path d="M577 24c-279 0-473-224-473-580 0-354 195-576 474-576 218 0 287 134 324 193h14v-551h180V0H922v-173h-20C865-111 790 24 577 24zm27-161c203 0 314-172 314-421 0-247-108-413-314-413-212 0-317 181-317 413 0 235 108 421 317 421" id="D"/><g id="a"><use transform="matrix(0.0087890625,0,0,0.0087890625,0,0)" xlink:href="#u"/><use transform="matrix(0.0087890625,0,0,0.0087890625,4.833984375,0)" xlink:href="#v"/><use transform="matrix(0.0087890625,0,0,0.0087890625,17.82421875,0)" xlink:href="#w"/><use transform="matrix(0.0087890625,0,0,0.0087890625,27.931640625,0)" xlink:href="#x"/><use transform="matrix(0.0087890625,0,0,0.0087890625,33.908203125,0)" xlink:href="#w"/><use transform="matrix(0.0087890625,0,0,0.0087890625,44.015625,0)" xlink:href="#y"/><use transform="matrix(0.0087890625,0,0,0.0087890625,55.212890625,0)" xlink:href="#w"/><use transform="matrix(0.0087890625,0,0,0.0087890625,65.3203125,0)" xlink:href="#z"/><use transform="matrix(0.0087890625,0,0,0.0087890625,74.8212890625,0)" xlink:href="#A"/><use transform="matrix(0.0087890625,0,0,0.0087890625,85.3154296875,0)" xlink:href="#B"/><use transform="matrix(0.0087890625,0,0,0.0087890625,95.501953125,0)" xlink:href="#w"/><use transform="matrix(0.0087890625,0,0,0.0087890625,105.609375,0)" xlink:href="#C"/><use transform="matrix(0.0087890625,0,0,0.0087890625,116.068359375,0)" xlink:href="#w"/><use transform="matrix(0.0087890625,0,0,0.0087890625,126.17578125,0)" xlink:href="#D"/><use transform="matrix(0.0087890625,0,0,0.0087890625,137.197265625,0)" xlink:href="#A"/></g><path d="M174-520v-126l944-476v196L406-588v12l712 338v194" id="E"/><path d="M338-670V0H158v-1118h173l1 207c72-158 192-221 342-221 226 0 378 139 378 422V0H872v-695c0-172-96-275-252-275-161 0-282 109-282 300" id="F"/><path d="M158 0v-1118h174v172h12c41-113 157-188 290-188 26 0 70 2 91 3v181c-11-2-60-10-108-10-161 0-279 109-279 260V0H158" id="G"/><path d="M678-1118v154H420V0H240v-964H20v-154h220v-149c0-194 155-293 318-293 85 0 141 18 168 30l-50 154c-19-6-47-17-97-17-111 0-159 58-159 166v109h258" id="H"/><path d="M1181-520L237-44v-194l712-338v-12L237-926v-196l944 476v126" id="I"/><g id="b"><use transform="matrix(0.0087890625,0,0,0.0087890625,0,0)" xlink:href="#E"/><use transform="matrix(0.0087890625,0,0,0.0087890625,11.9091796875,0)" xlink:href="#E"/><use transform="matrix(0.0087890625,0,0,0.0087890625,23.818359375,0)" xlink:href="#u"/><use transform="matrix(0.0087890625,0,0,0.0087890625,28.65234375,0)" xlink:href="#F"/><use transform="matrix(0.0087890625,0,0,0.0087890625,39.287109375,0)" xlink:href="#x"/><use transform="matrix(0.0087890625,0,0,0.0087890625,45,0)" xlink:href="#A"/><use transform="matrix(0.0087890625,0,0,0.0087890625,55.494140625,0)" xlink:href="#G"/><use transform="matrix(0.0087890625,0,0,0.0087890625,62.5517578125,0)" xlink:href="#H"/><use transform="matrix(0.0087890625,0,0,0.0087890625,68.9326171875,0)" xlink:href="#w"/><use transform="matrix(0.0087890625,0,0,0.0087890625,79.0400390625,0)" xlink:href="#C"/><use transform="matrix(0.0087890625,0,0,0.0087890625,89.3232421875,0)" xlink:href="#A"/><use transform="matrix(0.0087890625,0,0,0.0087890625,99.8173828125,0)" xlink:href="#I"/><use transform="matrix(0.0087890625,0,0,0.0087890625,111.7265625,0)" xlink:href="#I"/></g><path d="M593-100v-404H195v-159h398v-403h169v403h398v159H762v404H593" id="J"/><path d="M98-1322v-168h1126v168H757V0H567v-1322H98" id="K"/><path d="M338-1490V0H158v-1490h180" id="L"/><path d="M218-607c0-325 108-727 258-974h175c-155 315-250 682-250 974 0 265 78 531 250 886H476C306-10 218-315 218-607" id="M"/><path d="M158 0v-1118h180V0H158zm91-1301c-68 0-125-53-125-119s57-119 125-119c69 0 126 53 126 119s-57 119-126 119" id="N"/><path d="M611 442c-248 0-391-105-460-228l146-94c47 65 117 165 314 165 178 0 307-82 307-266v-224h-17C863-141 792-18 576-18c-268 0-472-195-472-546 0-346 197-568 476-568 216 0 288 133 326 193h17v-179h175V29c0 289-215 413-487 413zm-5-620c203 0 314-146 314-390 0-237-108-403-314-403-213 0-319 180-319 403 0 230 109 390 319 390" id="O"/><path d="M226 279v-1860h398v153H398V126h226v153H226" id="P"/><path d="M123 279V126h226v-1554H123v-153h398V279H123" id="Q"/><path d="M96 279C273-86 346-350 346-607c0-292-95-659-250-974h175c150 246 258 650 258 974 0 297-91 602-258 886H96" id="R"/><g id="c"><use transform="matrix(0.0087890625,0,0,0.0087890625,0,0)" xlink:href="#J"/><use transform="matrix(0.0087890625,0,0,0.0087890625,11.9091796875,0)" xlink:href="#C"/><use transform="matrix(0.0087890625,0,0,0.0087890625,22.1923828125,0)" xlink:href="#G"/><use transform="matrix(0.0087890625,0,0,0.0087890625,28.669921875,0)" xlink:href="#A"/><use transform="matrix(0.0087890625,0,0,0.0087890625,39.33984375,0)" xlink:href="#w"/><use transform="matrix(0.0087890625,0,0,0.0087890625,49.447265625,0)" xlink:href="#x"/><use transform="matrix(0.0087890625,0,0,0.0087890625,55.16015625,0)" xlink:href="#A"/><use transform="matrix(0.0087890625,0,0,0.0087890625,64.248046875,0)" xlink:href="#K"/><use transform="matrix(0.0087890625,0,0,0.0087890625,74.548828125,0)" xlink:href="#w"/><use transform="matrix(0.0087890625,0,0,0.0087890625,84.65625,0)" xlink:href="#y"/><use transform="matrix(0.0087890625,0,0,0.0087890625,95.677734375,0)" xlink:href="#L"/><use transform="matrix(0.0087890625,0,0,0.0087890625,100.037109375,0)" xlink:href="#A"/><use transform="matrix(0.0087890625,0,0,0.0087890625,110.53125,0)" xlink:href="#z"/><use transform="matrix(0.0087890625,0,0,0.0087890625,120.0322265625,0)" xlink:href="#M"/><use transform="matrix(0.0087890625,0,0,0.0087890625,126.59765625,0)" xlink:href="#z"/><use transform="matrix(0.0087890625,0,0,0.0087890625,136.0986328125,0)" xlink:href="#x"/><use transform="matrix(0.0087890625,0,0,0.0087890625,141.9873046875,0)" xlink:href="#G"/><use transform="matrix(0.0087890625,0,0,0.0087890625,149.044921875,0)" xlink:href="#N"/><use transform="matrix(0.0087890625,0,0,0.0087890625,153.404296875,0)" xlink:href="#F"/><use transform="matrix(0.0087890625,0,0,0.0087890625,164.0390625,0)" xlink:href="#O"/><use transform="matrix(0.0087890625,0,0,0.0087890625,175.078125,0)" xlink:href="#P"/><use transform="matrix(0.0087890625,0,0,0.0087890625,181.6435546875,0)" xlink:href="#Q"/><use transform="matrix(0.0087890625,0,0,0.0087890625,188.208984375,0)" xlink:href="#R"/></g><path d="M481 0L54-1118h197c107 314 236 620 325 951 87-331 217-637 324-951h197L670 0H481" id="S"/><path d="M180 0v-1490h528c311 0 458 177 458 395 0 191-114 278-244 313v14c139 9 302 137 302 371 0 225-148 397-499 397H180zm190-168h350c232 0 321-102 321-231 0-149-120-277-311-277H370v508zm0-668h328c160 0 286-101 286-255 0-129-87-231-280-231H370v486" id="T"/><path d="M784 20c-382 0-662-292-662-764 0-473 280-766 662-766s660 293 660 766c0 472-278 764-660 764zm0-176c266 0 475-207 475-588 0-383-209-590-475-590-268 0-477 208-477 590 0 380 209 588 477 588" id="U"/><path d="M180 0v-1490h510c348 0 508 194 508 460 0 198-88 351-276 417L1256 0h-220L726-579c-117 2-238 0-356 1V0H180zm190-747h312c235 0 327-108 327-283 0-177-92-293-329-293H370v576" id="V"/><path d="M180 0v-1490h270l367 940c28 72 75 218 110 339 35-117 81-264 110-339l362-940h271V0h-187c2-448-5-837 7-1287-157 497-311 829-483 1287H842C666-458 514-784 354-1284c12 438 5 843 7 1284H180" id="W"/><g id="d"><use transform="matrix(0.0087890625,0,0,0.0087890625,0,0)" xlink:href="#J"/><use transform="matrix(0.0087890625,0,0,0.0087890625,11.9091796875,0)" xlink:href="#z"/><use transform="matrix(0.0087890625,0,0,0.0087890625,21.41015625,0)" xlink:href="#w"/><use transform="matrix(0.0087890625,0,0,0.0087890625,31.25390625,0)" xlink:href="#S"/><use transform="matrix(0.0087890625,0,0,0.0087890625,41.0185546875,0)" xlink:href="#A"/><use transform="matrix(0.0087890625,0,0,0.0087890625,51.5126953125,0)" xlink:href="#v"/><use transform="matrix(0.0087890625,0,0,0.0087890625,64.5029296875,0)" xlink:href="#w"/><use transform="matrix(0.0087890625,0,0,0.0087890625,74.6103515625,0)" xlink:href="#x"/><use transform="matrix(0.0087890625,0,0,0.0087890625,80.5869140625,0)" xlink:href="#w"/><use transform="matrix(0.0087890625,0,0,0.0087890625,90.6943359375,0)" xlink:href="#M"/><use transform="matrix(0.0087890625,0,0,0.0087890625,97.259765625,0)" xlink:href="#u"/><use transform="matrix(0.0087890625,0,0,0.0087890625,102.09375,0)" xlink:href="#T"/><use transform="matrix(0.0087890625,0,0,0.0087890625,113.87109375,0)" xlink:href="#w"/><use transform="matrix(0.0087890625,0,0,0.0087890625,123.978515625,0)" xlink:href="#z"/><use transform="matrix(0.0087890625,0,0,0.0087890625,133.4794921875,0)" xlink:href="#A"/><use transform="matrix(0.0087890625,0,0,0.0087890625,143.9736328125,0)" xlink:href="#U"/><use transform="matrix(0.0087890625,0,0,0.0087890625,157.7373046875,0)" xlink:href="#V"/><use transform="matrix(0.0087890625,0,0,0.0087890625,169.3212890625,0)" xlink:href="#W"/><use transform="matrix(0.0087890625,0,0,0.0087890625,185.5810546875,0)" xlink:href="#R"/></g><path d="M613 24c-304 0-509-231-509-576 0-350 205-580 509-580 305 0 511 230 511 580 0 345-206 576-511 576zm0-161c226 0 329-195 329-415 0-222-103-419-329-419-223 0-326 196-326 419 0 220 103 415 326 415" id="X"/><g id="e"><use transform="matrix(0.0087890625,0,0,0.0087890625,0,0)" xlink:href="#J"/><use transform="matrix(0.0087890625,0,0,0.0087890625,11.9091796875,0)" xlink:href="#L"/><use transform="matrix(0.0087890625,0,0,0.0087890625,16.2685546875,0)" xlink:href="#X"/><use transform="matrix(0.0087890625,0,0,0.0087890625,27.2373046875,0)" xlink:href="#w"/><use transform="matrix(0.0087890625,0,0,0.0087890625,37.3447265625,0)" xlink:href="#D"/><use transform="matrix(0.0087890625,0,0,0.0087890625,48.3662109375,0)" xlink:href="#M"/><use transform="matrix(0.0087890625,0,0,0.0087890625,54.931640625,0)" xlink:href="#u"/><use transform="matrix(0.0087890625,0,0,0.0087890625,59.765625,0)" xlink:href="#T"/><use transform="matrix(0.0087890625,0,0,0.0087890625,71.54296875,0)" xlink:href="#w"/><use transform="matrix(0.0087890625,0,0,0.0087890625,81.650390625,0)" xlink:href="#z"/><use transform="matrix(0.0087890625,0,0,0.0087890625,91.1513671875,0)" xlink:href="#A"/><use transform="matrix(0.0087890625,0,0,0.0087890625,101.6455078125,0)" xlink:href="#U"/><use transform="matrix(0.0087890625,0,0,0.0087890625,115.4091796875,0)" xlink:href="#V"/><use transform="matrix(0.0087890625,0,0,0.0087890625,126.9931640625,0)" xlink:href="#W"/><use transform="matrix(0.0087890625,0,0,0.0087890625,143.2529296875,0)" xlink:href="#R"/></g><path d="M295 13c-75 0-135-60-135-135s60-135 135-135 135 60 135 135S370 13 295 13" id="Y"/><g id="f"><use transform="matrix(0.0087890625,0,0,0.0087890625,0,0)" xlink:href="#Y"/><use transform="matrix(0.0087890625,0,0,0.0087890625,5.185546875,0)" xlink:href="#Y"/><use transform="matrix(0.0087890625,0,0,0.0087890625,10.37109375,0)" xlink:href="#Y"/></g><path d="M657 26c-323 0-524-166-541-416h195c15 169 171 246 346 246 202 0 356-106 356-265 5-203-294-238-475-293-239-73-380-191-380-389 0-252 224-419 512-419 294 0 499 171 508 396H992c-17-145-151-228-328-228-193 0-321 102-321 242 0 156 175 211 284 241l149 41c160 44 422 134 422 412 0 244-197 432-541 432" id="Z"/><path d="M784 20c-382 0-662-292-662-764 0-473 280-766 662-766s660 293 660 766c0 282-99 499-260 629l192 255h-198L1049-33C969 2 880 20 784 20zm-62-486h198l156 205c112-98 183-261 183-483 0-383-209-590-475-590-268 0-477 208-477 590 0 380 209 588 477 588 54 0 106-9 154-25" id="aa"/><path d="M180 0v-1490h190v1322h690V0H180" id="ab"/><g id="g"><use transform="matrix(0.0087890625,0,0,0.0087890625,0,0)" xlink:href="#Z"/><use transform="matrix(0.0087890625,0,0,0.0087890625,11.548828125,0)" xlink:href="#aa"/><use transform="matrix(0.0087890625,0,0,0.0087890625,25.3125,0)" xlink:href="#ab"/><use transform="matrix(0.0087890625,0,0,0.0087890625,35.490234375,0)" xlink:href="#N"/><use transform="matrix(0.0087890625,0,0,0.0087890625,39.849609375,0)" xlink:href="#x"/><use transform="matrix(0.0087890625,0,0,0.0087890625,45.5625,0)" xlink:href="#A"/><use transform="matrix(0.0087890625,0,0,0.0087890625,56.056640625,0)" xlink:href="#B"/><use transform="matrix(0.0087890625,0,0,0.0087890625,66.2431640625,0)" xlink:href="#w"/><use transform="matrix(0.0087890625,0,0,0.0087890625,76.3505859375,0)" xlink:href="#C"/><use transform="matrix(0.0087890625,0,0,0.0087890625,86.8095703125,0)" xlink:href="#w"/><use transform="matrix(0.0087890625,0,0,0.0087890625,96.9169921875,0)" xlink:href="#D"/><use transform="matrix(0.0087890625,0,0,0.0087890625,107.9384765625,0)" xlink:href="#A"/></g><path d="M158 0v-1118h175l1 205c55-151 181-225 313-225 147 0 245 90 285 228 53-141 190-228 352-228 194 0 352 125 352 384V0h-181v-749c0-161-105-225-225-225-151 0-243 103-243 244V0H807v-767c0-124-93-207-219-207-131 0-250 92-250 270V0H158" id="ac"/><path d="M158 418v-1536h174v179h20c37-59 106-193 324-193 279 0 474 222 474 576 0 356-194 580-473 580-213 0-288-135-325-197h-14v591H158zm492-555c209 0 317-186 317-421 0-232-105-413-317-413-206 0-314 166-314 413 0 249 111 421 314 421" id="ad"/><g id="h"><use transform="matrix(0.0087890625,0,0,0.0087890625,0,0)" xlink:href="#u"/><use transform="matrix(0.0087890625,0,0,0.0087890625,4.833984375,0)" xlink:href="#ac"/><use transform="matrix(0.0087890625,0,0,0.0087890625,20.6015625,0)" xlink:href="#ad"/><use transform="matrix(0.0087890625,0,0,0.0087890625,31.623046875,0)" xlink:href="#L"/><use transform="matrix(0.0087890625,0,0,0.0087890625,35.982421875,0)" xlink:href="#A"/><use transform="matrix(0.0087890625,0,0,0.0087890625,46.4765625,0)" xlink:href="#ac"/><use transform="matrix(0.0087890625,0,0,0.0087890625,62.244140625,0)" xlink:href="#A"/><use transform="matrix(0.0087890625,0,0,0.0087890625,72.73828125,0)" xlink:href="#F"/><use transform="matrix(0.0087890625,0,0,0.0087890625,83.373046875,0)" xlink:href="#x"/><use transform="matrix(0.0087890625,0,0,0.0087890625,89.0859375,0)" xlink:href="#z"/></g><g id="i"><use transform="matrix(0.0087890625,0,0,0.0087890625,0,0)" xlink:href="#u"/><use transform="matrix(0.0087890625,0,0,0.0087890625,4.833984375,0)" xlink:href="#T"/><use transform="matrix(0.0087890625,0,0,0.0087890625,16.611328125,0)" xlink:href="#w"/><use transform="matrix(0.0087890625,0,0,0.0087890625,26.71875,0)" xlink:href="#z"/><use transform="matrix(0.0087890625,0,0,0.0087890625,36.2197265625,0)" xlink:href="#A"/><use transform="matrix(0.0087890625,0,0,0.0087890625,46.7138671875,0)" xlink:href="#U"/><use transform="matrix(0.0087890625,0,0,0.0087890625,60.4775390625,0)" xlink:href="#V"/><use transform="matrix(0.0087890625,0,0,0.0087890625,72.0615234375,0)" xlink:href="#W"/></g><path d="M295 13c-75 0-135-60-135-135s60-135 135-135 135 60 135 135S370 13 295 13zm0-809c-75 0-135-60-135-135s60-135 135-135 135 60 135 135-60 135-135 135" id="ae"/><g id="j"><use transform="matrix(0.0087890625,0,0,0.0087890625,0,0)" xlink:href="#J"/><use transform="matrix(0.0087890625,0,0,0.0087890625,11.9091796875,0)" xlink:href="#z"/><use transform="matrix(0.0087890625,0,0,0.0087890625,21.41015625,0)" xlink:href="#w"/><use transform="matrix(0.0087890625,0,0,0.0087890625,31.25390625,0)" xlink:href="#S"/><use transform="matrix(0.0087890625,0,0,0.0087890625,41.0185546875,0)" xlink:href="#A"/><use transform="matrix(0.0087890625,0,0,0.0087890625,51.5126953125,0)" xlink:href="#M"/><use transform="matrix(0.0087890625,0,0,0.0087890625,58.078125,0)" xlink:href="#R"/><use transform="matrix(0.0087890625,0,0,0.0087890625,64.6435546875,0)" xlink:href="#ae"/></g><g id="k"><use transform="matrix(0.0087890625,0,0,0.0087890625,0,0)" xlink:href="#z"/><use transform="matrix(0.0087890625,0,0,0.0087890625,9.5009765625,0)" xlink:href="#x"/><use transform="matrix(0.0087890625,0,0,0.0087890625,15.3896484375,0)" xlink:href="#G"/></g><g id="l"><use transform="matrix(0.0087890625,0,0,0.0087890625,0,0)" xlink:href="#J"/><use transform="matrix(0.0087890625,0,0,0.0087890625,11.9091796875,0)" xlink:href="#L"/><use transform="matrix(0.0087890625,0,0,0.0087890625,16.2685546875,0)" xlink:href="#X"/><use transform="matrix(0.0087890625,0,0,0.0087890625,27.2373046875,0)" xlink:href="#w"/><use transform="matrix(0.0087890625,0,0,0.0087890625,37.3447265625,0)" xlink:href="#D"/><use transform="matrix(0.0087890625,0,0,0.0087890625,48.3662109375,0)" xlink:href="#M"/><use transform="matrix(0.0087890625,0,0,0.0087890625,54.931640625,0)" xlink:href="#R"/><use transform="matrix(0.0087890625,0,0,0.0087890625,61.4970703125,0)" xlink:href="#ae"/></g><use transform="matrix(0.0087890625,0,0,0.0087890625,0,0)" xlink:href="#J" id="m"/><g id="n"><use transform="matrix(0.0087890625,0,0,0.0087890625,0,0)" xlink:href="#H"/><use transform="matrix(0.0087890625,0,0,0.0087890625,6.662109375,0)" xlink:href="#G"/><use transform="matrix(0.0087890625,0,0,0.0087890625,13.1396484375,0)" xlink:href="#X"/><use transform="matrix(0.0087890625,0,0,0.0087890625,23.9326171875,0)" xlink:href="#ac"/><use transform="matrix(0.0087890625,0,0,0.0087890625,39.7001953125,0)" xlink:href="#Z"/><use transform="matrix(0.0087890625,0,0,0.0087890625,51.2490234375,0)" xlink:href="#aa"/><use transform="matrix(0.0087890625,0,0,0.0087890625,65.0126953125,0)" xlink:href="#ab"/><use transform="matrix(0.0087890625,0,0,0.0087890625,75.1904296875,0)" xlink:href="#M"/><use transform="matrix(0.0087890625,0,0,0.0087890625,81.5537109375,0)" xlink:href="#C"/><use transform="matrix(0.0087890625,0,0,0.0087890625,91.8369140625,0)" xlink:href="#X"/><use transform="matrix(0.0087890625,0,0,0.0087890625,102.6298828125,0)" xlink:href="#L"/></g><path d="M128 359l88-567h206L266 359H128" id="af"/><use transform="matrix(0.0087890625,0,0,0.0087890625,0,0)" xlink:href="#af" id="o"/><path d="M537 14c-226 0-379-139-379-422v-710h180v695c0 172 97 275 253 275 160 0 281-109 281-300v-670h181V0H879v-209C806-46 684 14 537 14" id="ag"/><g id="p"><use transform="matrix(0.0087890625,0,0,0.0087890625,0,0)" xlink:href="#S"/><use transform="matrix(0.0087890625,0,0,0.0087890625,10.0283203125,0)" xlink:href="#w"/><use transform="matrix(0.0087890625,0,0,0.0087890625,20.1357421875,0)" xlink:href="#L"/><use transform="matrix(0.0087890625,0,0,0.0087890625,24.4951171875,0)" xlink:href="#ag"/><use transform="matrix(0.0087890625,0,0,0.0087890625,35.138671875,0)" xlink:href="#A"/><use transform="matrix(0.0087890625,0,0,0.0087890625,45.4306640625,0)" xlink:href="#R"/></g><path d="M52 0l541-1490h220L1361 0h-200l-149-416H398L254 0H52zm404-582h497c-103-290-145-390-251-756-108 377-145 460-246 756" id="ah"/><g id="q"><use transform="matrix(0.0087890625,0,0,0.0087890625,0,0)" xlink:href="#ah"/><use transform="matrix(0.0087890625,0,0,0.0087890625,12.4189453125,0)" xlink:href="#C"/><use transform="matrix(0.0087890625,0,0,0.0087890625,22.7021484375,0)" xlink:href="#C"/><use transform="matrix(0.0087890625,0,0,0.0087890625,32.9853515625,0)" xlink:href="#X"/><use transform="matrix(0.0087890625,0,0,0.0087890625,43.7783203125,0)" xlink:href="#ag"/><use transform="matrix(0.0087890625,0,0,0.0087890625,54.421875,0)" xlink:href="#F"/><use transform="matrix(0.0087890625,0,0,0.0087890625,65.056640625,0)" xlink:href="#x"/><use transform="matrix(0.0087890625,0,0,0.0087890625,70.9453125,0)" xlink:href="#U"/><use transform="matrix(0.0087890625,0,0,0.0087890625,84.708984375,0)" xlink:href="#V"/><use transform="matrix(0.0087890625,0,0,0.0087890625,96.29296875,0)" xlink:href="#W"/></g><path d="M783 20c-382 0-661-292-661-764 0-473 279-766 661-766 302 0 548 182 601 489h-190c-42-204-217-313-411-313-268 0-476 208-476 590 0 381 209 588 476 588 195 0 369-110 411-313h190c-52 303-296 489-601 489" id="ai"/><g id="r"><use transform="matrix(0.0087890625,0,0,0.0087890625,0,0)" xlink:href="#ai"/><use transform="matrix(0.0087890625,0,0,0.0087890625,13.1484375,0)" xlink:href="#w"/><use transform="matrix(0.0087890625,0,0,0.0087890625,23.255859375,0)" xlink:href="#G"/><use transform="matrix(0.0087890625,0,0,0.0087890625,29.7333984375,0)" xlink:href="#D"/><use transform="matrix(0.0087890625,0,0,0.0087890625,40.7548828125,0)" xlink:href="#U"/><use transform="matrix(0.0087890625,0,0,0.0087890625,54.5185546875,0)" xlink:href="#V"/><use transform="matrix(0.0087890625,0,0,0.0087890625,66.1025390625,0)" xlink:href="#W"/></g><g id="s"><use transform="matrix(0.0087890625,0,0,0.0087890625,0,0)" xlink:href="#K"/><use transform="matrix(0.0087890625,0,0,0.0087890625,10.599609375,0)" xlink:href="#G"/><use transform="matrix(0.0087890625,0,0,0.0087890625,17.3759765625,0)" xlink:href="#w"/><use transform="matrix(0.0087890625,0,0,0.0087890625,27.4833984375,0)" xlink:href="#F"/><use transform="matrix(0.0087890625,0,0,0.0087890625,38.1181640625,0)" xlink:href="#z"/><use transform="matrix(0.0087890625,0,0,0.0087890625,47.619140625,0)" xlink:href="#w"/><use transform="matrix(0.0087890625,0,0,0.0087890625,57.7265625,0)" xlink:href="#C"/><use transform="matrix(0.0087890625,0,0,0.0087890625,68.009765625,0)" xlink:href="#x"/><use transform="matrix(0.0087890625,0,0,0.0087890625,73.8984375,0)" xlink:href="#N"/><use transform="matrix(0.0087890625,0,0,0.0087890625,78.2578125,0)" xlink:href="#X"/><use transform="matrix(0.0087890625,0,0,0.0087890625,89.05078125,0)" xlink:href="#F"/><use transform="matrix(0.0087890625,0,0,0.0087890625,99.685546875,0)" xlink:href="#U"/><use transform="matrix(0.0087890625,0,0,0.0087890625,113.44921875,0)" xlink:href="#V"/><use transform="matrix(0.0087890625,0,0,0.0087890625,125.033203125,0)" xlink:href="#W"/></g><g id="t"><use transform="matrix(0.0087890625,0,0,0.0087890625,0,0)" xlink:href="#ag"/><use transform="matrix(0.0087890625,0,0,0.0087890625,10.6435546875,0)" xlink:href="#z"/><use transform="matrix(0.0087890625,0,0,0.0087890625,20.14453125,0)" xlink:href="#A"/><use transform="matrix(0.0087890625,0,0,0.0087890625,30.638671875,0)" xlink:href="#z"/></g></defs></g></svg>