<svg xmlns="http://www.w3.org/2000/svg" xmlns:xlink="http://www.w3.org/1999/xlink" xmlns:lucid="lucid" width="1241.5" height="623.88"><g transform="translate(-339.5 -66.99999999994938)" lucid:page-tab-id="0_0"><path d="M0 0h1760v1360H0z" fill="#fff"/><path d="M699.5 265H352a12 12 0 0 0-12 12v173.07a12 12 0 0 0 12 12h8.6M719.5 265h-20m10-10v20m-10-20v20M379.78 462.07h-20m20-10l-20 10m20 10l-20-10" stroke="#333" fill="none"/><path d="M720 185a5 5 0 0 1 5-5h270a5 5 0 0 1 5 5v90a5 5 0 0 1-5 5H725a5 5 0 0 1-5-5z" fill="#fff"/><path d="M720 220v-35a5 5 0 0 1 5-5h270a5 5 0 0 1 5 5v35" fill="#ccc"/><path d="M720 185a5 5 0 0 1 5-5h270a5 5 0 0 1 5 5v90a5 5 0 0 1-5 5H725a5 5 0 0 1-5-5zM720 220h280M860 220v60" stroke="#333" fill="none"/><use xlink:href="#a" transform="matrix(1,0,0,1,730,180) translate(0 26.089501953125)"/><use xlink:href="#b" transform="matrix(1,0,0,1,725,222.5) translate(0 18.589501953125)"/><use xlink:href="#c" transform="matrix(1,0,0,1,865,222.5) translate(0 18.589501953125)"/><use xlink:href="#d" transform="matrix(1,0,0,1,725,252.5) translate(0 18.589501953125)"/><use xlink:href="#e" transform="matrix(1,0,0,1,865,252.5) translate(0 18.589501953125)"/><path d="M1220 285a5 5 0 0 1 5-5h310a5 5 0 0 1 5 5v210a5 5 0 0 1-5 5h-310a5 5 0 0 1-5-5z" fill="#fff"/><path d="M1220 320v-35a5 5 0 0 1 5-5h310a5 5 0 0 1 5 5v35" fill="#ccc"/><path d="M1220 285a5 5 0 0 1 5-5h310a5 5 0 0 1 5 5v210a5 5 0 0 1-5 5h-310a5 5 0 0 1-5-5zM1220 320h320M1380 320v180" stroke="#333" fill="none"/><use xlink:href="#f" transform="matrix(1,0,0,1,1230,280) translate(0 26.089501953125)"/><use xlink:href="#g" transform="matrix(1,0,0,1,1225,322.5) translate(0 18.589501953125)"/><use xlink:href="#h" transform="matrix(1,0,0,1,1385,322.5) translate(0 18.589501953125)"/><use xlink:href="#b" transform="matrix(1,0,0,1,1225,352.5) translate(0 18.589501953125)"/><use xlink:href="#i" transform="matrix(1,0,0,1,1385,352.5) translate(0 18.589501953125)"/><use xlink:href="#j" transform="matrix(1,0,0,1,1225,382.5) translate(0 18.589501953125)"/><use xlink:href="#k" transform="matrix(1,0,0,1,1385,382.5) translate(0 18.589501953125)"/><use xlink:href="#l" transform="matrix(1,0,0,1,1225,412.5) translate(0 18.589501953125)"/><use xlink:href="#k" transform="matrix(1,0,0,1,1385,412.5) translate(0 18.589501953125)"/><use xlink:href="#m" transform="matrix(1,0,0,1,1225,442.5) translate(0 18.589501953125)"/><use xlink:href="#n" transform="matrix(1,0,0,1,1385,442.5) translate(0 18.589501953125)"/><use xlink:href="#o" transform="matrix(1,0,0,1,1225,472.5) translate(0 18.589501953125)"/><use xlink:href="#i" transform="matrix(1,0,0,1,1385,472.5) translate(0 18.589501953125)"/><path d="M380.5 412.05a5 5 0 0 1 5-5h270a5 5 0 0 1 5 5v90a5 5 0 0 1-5 5h-270a5 5 0 0 1-5-5z" fill="#fff"/><path d="M380.5 447.05v-35a5 5 0 0 1 5-5h270a5 5 0 0 1 5 5v35" fill="#ccc"/><path d="M380.5 412.05a5 5 0 0 1 5-5h270a5 5 0 0 1 5 5v90a5 5 0 0 1-5 5h-270a5 5 0 0 1-5-5zM380.5 447.05h280M518.78 447.05v60" stroke="#333" fill="none"/><use xlink:href="#p" transform="matrix(1,0,0,1,390.4999444246057,407.05130384579695) translate(0 26.089501953125)"/><use xlink:href="#b" transform="matrix(1,0,0,1,385.4999444246057,449.55130384579695) translate(0 18.589501953125)"/><use xlink:href="#i" transform="matrix(1,0,0,1,523.7797790004672,449.55130384579695) translate(0 18.589501953125)"/><use xlink:href="#q" transform="matrix(1,0,0,1,385.4999444246057,479.55130384579695) translate(0 18.589501953125)"/><use xlink:href="#i" transform="matrix(1,0,0,1,523.7797790004672,479.55130384579695) translate(0 18.589501953125)"/><path d="M540 76a8 8 0 0 1 8-8h836.75a8 8 0 0 1 8 8v25.16a8 8 0 0 1-8 8H548a8 8 0 0 1-8-8z" stroke="#000" stroke-opacity="0" stroke-width="2" fill="#fff" fill-opacity="0"/><use xlink:href="#r" transform="matrix(1,0,0,1,544,71.99999999994938) translate(274.95322265625 28.429583333333333)"/><use xlink:href="#s" transform="matrix(1,0,0,1,544,71.99999999994938) translate(311.5570377604166 28.429583333333333)"/><use xlink:href="#t" transform="matrix(1,0,0,1,544,71.99999999994938) translate(417.12939453125 28.429583333333333)"/><use xlink:href="#u" transform="matrix(1,0,0,1,544,71.99999999994938) translate(527.7148307291666 28.429583333333333)"/><path d="M647.66 107.8h634.26M647.68 107.8h-1.02" stroke="#a9afb8" stroke-width="2" fill="none"/><path d="M1282.92 108.8h-1.02v-1.96h1.02z" stroke="#a9afb8" stroke-width=".05" fill="#a9afb8"/><path d="M540 117.16a8 8 0 0 1 8-8h837.7a8 8 0 0 1 8 8V120a8 8 0 0 1-8 8H548a8 8 0 0 1-8-8z" stroke="#000" stroke-opacity="0" stroke-width="2" fill="#fff" fill-opacity="0"/><use xlink:href="#v" transform="matrix(1,0,0,1,544.0000000000005,113.15522395684819) translate(275.96921657986115 16.461006944444446)"/><use xlink:href="#w" transform="matrix(1,0,0,1,544.0000000000005,113.15522395684819) translate(322.86214898003476 16.461006944444446)"/><use xlink:href="#x" transform="matrix(1,0,0,1,544.0000000000005,113.15522395684819) translate(380.8340662977431 16.461006944444446)"/><use xlink:href="#y" transform="matrix(1,0,0,1,544.0000000000005,113.15522395684819) translate(447.85671549479173 16.461006944444446)"/><use xlink:href="#z" transform="matrix(1,0,0,1,544.0000000000005,113.15522395684819) translate(460.58886555989585 16.461006944444446)"/><use xlink:href="#A" transform="matrix(1,0,0,1,544.0000000000005,113.15522395684819) translate(524.7566791449653 16.461006944444446)"/><use xlink:href="#B" transform="matrix(1,0,0,1,544.0000000000005,113.15522395684819) translate(541.6773106553819 16.461006944444446)"/><path d="M780.5 442.18a5 5 0 0 1 5-5h270a5 5 0 0 1 5 5v180a5 5 0 0 1-5 5h-270a5 5 0 0 1-5-5z" fill="#fff"/><path d="M780.5 477.18v-35a5 5 0 0 1 5-5h270a5 5 0 0 1 5 5v35" fill="#ccc"/><path d="M780.5 442.18a5 5 0 0 1 5-5h270a5 5 0 0 1 5 5v180a5 5 0 0 1-5 5h-270a5 5 0 0 1-5-5zM780.5 477.18h280M918.78 477.18v150" stroke="#333" fill="none"/><use xlink:href="#C" transform="matrix(1,0,0,1,790.4999444246057,437.1763011027407) translate(0 26.089501953125)"/><use xlink:href="#q" transform="matrix(1,0,0,1,785.4999444246057,479.6763011027407) translate(0 18.589501953125)"/><use xlink:href="#c" transform="matrix(1,0,0,1,923.7797790004672,479.6763011027407) translate(0 18.589501953125)"/><use xlink:href="#g" transform="matrix(1,0,0,1,785.4999444246057,509.6763011027407) translate(0 18.589501953125)"/><use xlink:href="#D" transform="matrix(1,0,0,1,923.7797790004672,509.6763011027407) translate(0 18.589501953125)"/><use xlink:href="#E" transform="matrix(1,0,0,1,785.4999444246057,539.6763011027407) translate(0 18.589501953125)"/><use xlink:href="#F" transform="matrix(1,0,0,1,923.7797790004672,539.6763011027407) translate(0 18.589501953125)"/><use xlink:href="#G" transform="matrix(1,0,0,1,785.4999444246057,569.6763011027407) translate(0 18.589501953125)"/><use xlink:href="#e" transform="matrix(1,0,0,1,923.7797790004672,569.6763011027407) translate(0 18.589501953125)"/><use xlink:href="#H" transform="matrix(1,0,0,1,785.4999444246057,599.6763011027407) translate(0 18.589501953125)"/><use xlink:href="#i" transform="matrix(1,0,0,1,923.7797790004672,599.6763011027407) translate(0 18.589501953125)"/><path d="M760 492.18h-79M780 492.18h-20m10-10v20m-10-20v20M661 492.18h20m-10 10v-20m10 20v-20" stroke="#333" fill="none"/><path d="M380.5 562.05a5 5 0 0 1 5-5h270a5 5 0 0 1 5 5v120a5 5 0 0 1-5 5h-270a5 5 0 0 1-5-5z" fill="#fff"/><path d="M380.5 597.05v-35a5 5 0 0 1 5-5h270a5 5 0 0 1 5 5v35" fill="#ccc"/><path d="M380.5 562.05a5 5 0 0 1 5-5h270a5 5 0 0 1 5 5v120a5 5 0 0 1-5 5h-270a5 5 0 0 1-5-5zM380.5 597.05h280M518.78 597.05v90" stroke="#333" fill="none"/><use xlink:href="#I" transform="matrix(1,0,0,1,390.4999444246057,557.051303845797) translate(0 26.089501953125)"/><use xlink:href="#H" transform="matrix(1,0,0,1,385.4999444246057,599.551303845797) translate(0 18.589501953125)"/><use xlink:href="#c" transform="matrix(1,0,0,1,523.7797790004672,599.551303845797) translate(0 18.589501953125)"/><use xlink:href="#J" transform="matrix(1,0,0,1,385.4999444246057,629.551303845797) translate(0 18.589501953125)"/><use xlink:href="#k" transform="matrix(1,0,0,1,523.7797790004672,629.551303845797) translate(0 18.589501953125)"/><use xlink:href="#K" transform="matrix(1,0,0,1,385.4999444246057,659.551303845797) translate(0 18.589501953125)"/><use xlink:href="#e" transform="matrix(1,0,0,1,523.7797790004672,659.551303845797) translate(0 18.589501953125)"/><path d="M760 612.46h-39.3a.2.2 0 0 1-.2-.2.2.2 0 0 0-.2-.2h-39.9M780 612.46h-20m10-10v20m-10-20v20M661.22 612.05h20m-20 10l20-10m-20-10l20 10M1199.5 335h-47.25a12 12 0 0 0-12 12v163.14a12 12 0 0 1-12 12h-47.84M1219.5 335h-20m10-10v20m-10-20v20M1061.22 522.14h20m-20 10l20-10m-20-10l20 10M1559.9 365h8.6a12 12 0 0 0 12-12V247a12 12 0 0 0-12-12h-548M1540.72 365h20m-20 10l20-10m-20-10l20 10M1000.5 235h20m-10 10v-20m10 20v-20" stroke="#333" fill="none"/><path d="M1226.85 565.4a5 5 0 0 1 5-5h270a5 5 0 0 1 5 5v120a5 5 0 0 1-5 5h-270a5 5 0 0 1-5-5z" fill="#fff"/><path d="M1226.85 600.4v-35a5 5 0 0 1 5-5h270a5 5 0 0 1 5 5v35" fill="#ccc"/><path d="M1226.85 565.4a5 5 0 0 1 5-5h270a5 5 0 0 1 5 5v120a5 5 0 0 1-5 5h-270a5 5 0 0 1-5-5zM1226.85 600.4h280M1365.13 600.4v90" stroke="#333" fill="none"/><use xlink:href="#L" transform="matrix(1,0,0,1,1236.8534472146566,560.3846371791302) translate(0 26.089501953125)"/><use xlink:href="#o" transform="matrix(1,0,0,1,1231.8534472146566,602.8846371791302) translate(0 18.589501953125)"/><g><use xlink:href="#c" transform="matrix(1,0,0,1,1370.1332817905181,602.8846371791302) translate(0 18.589501953125)"/></g><g><use xlink:href="#M" transform="matrix(1,0,0,1,1231.8534472146566,632.8846371791302) translate(0 18.589501953125)"/></g><g><use xlink:href="#k" transform="matrix(1,0,0,1,1370.1332817905181,632.8846371791302) translate(0 18.589501953125)"/></g><g><use xlink:href="#N" transform="matrix(1,0,0,1,1231.8534472146566,662.8846371791302) translate(0 18.589501953125)"/></g><g><use xlink:href="#e" transform="matrix(1,0,0,1,1370.1332817905181,662.8846371791302) translate(0 18.589501953125)"/></g><path d="M1206.35 615.35h-14.85a12 12 0 0 1-12-12V497.3a12 12 0 0 1 12-12h8.6M1226.35 615.35h-20m10-10v20m-10-20v20M1219.28 485.3h-20m20-10l-20 10m20 10l-20-10" stroke="#333" fill="none"/><defs><path fill="#333" d="M-41 0l788-1490h220L1268 0h-192l-80-416H383L169 0H-41zm509-582h497c-56-293-77-375-126-756-162 359-224 468-371 756" id="O"/><path fill="#333" d="M528 24C258 24 94-156 94-433c0-354 228-699 603-699 222 0 381 120 410 314l-176 39c-14-114-95-192-238-192-272 0-419 288-419 536 0 167 76 298 258 298 155 0 277-90 329-211l166 58C935-93 745 24 528 24" id="P"/><path fill="#333" d="M528 24C258 24 94-156 94-433c0-355 229-699 603-699 270 0 436 178 436 458 0 359-234 698-605 698zm4-161c275 0 420-287 420-533 0-170-77-301-260-301-271 0-418 288-418 536 0 168 77 298 258 298" id="Q"/><path fill="#333" d="M443 14C219 14 87-123 134-408l117-710h180L317-423c-28 171 49 275 206 275s300-105 332-300l110-670h181L961 0H787l35-209C722-47 590 14 443 14" id="R"/><path fill="#333" d="M356-664L245 0H65l186-1118h173l-32 197c96-152 219-211 366-211 232 0 366 145 319 428L960 0H779l117-701c29-174-48-269-198-269-165 0-310 115-342 306" id="S"/><path fill="#333" d="M691-1118l-25 154H437L325-290c-17 103 16 144 108 144 23 0 63-6 94-12L538-6c-36 12-87 20-136 20-196 0-290-109-260-290l114-688H88l25-154h169l44-266h180l-44 266h229" id="T"/><g id="a"><use transform="matrix(0.008173828125000001,0,0,0.008173828125000001,0,0)" xlink:href="#O"/><use transform="matrix(0.008173828125000001,0,0,0.008173828125000001,11.549619140625001,0)" xlink:href="#P"/><use transform="matrix(0.008173828125000001,0,0,0.008173828125000001,21.121171875,0)" xlink:href="#P"/><use transform="matrix(0.008173828125000001,0,0,0.008173828125000001,30.692724609375002,0)" xlink:href="#Q"/><use transform="matrix(0.008173828125000001,0,0,0.008173828125000001,40.738359375,0)" xlink:href="#R"/><use transform="matrix(0.008173828125000001,0,0,0.008173828125000001,50.645039062500004,0)" xlink:href="#S"/><use transform="matrix(0.008173828125000001,0,0,0.008173828125000001,60.543544921875004,0)" xlink:href="#T"/></g><path fill="#333" d="M481 24C202 24 45-202 104-557s293-575 571-575c216 0 263 132 291 193h15l29-179h181L1006 0H831l28-173h-21C788-107 693 24 481 24zm56-161c204 0 342-174 383-422s-41-412-245-412c-215 0-350 183-388 412-39 235 39 422 250 422" id="U"/><path fill="#333" d="M841 0l-27 166h-934L-93 0h934" id="V"/><path fill="#333" d="M66 0l185-1118h180L246 0H66zm307-1301c-71 0-117-55-106-119s74-119 145-119c65 0 117 50 106 118s-78 120-145 120" id="W"/><path fill="#333" d="M492 24C248 24 94-147 94-425c0-352 212-707 569-707 222 0 274 136 303 198h12l92-556h181L1004 0H829l30-173h-19C792-103 700 24 492 24zm32-161c268 0 407-295 407-549 0-175-80-285-247-285-266 0-408 283-408 536 0 174 79 298 248 298" id="X"/><g id="b"><use transform="matrix(0.008173828125000001,0,0,0.008173828125000001,0,0)" xlink:href="#U"/><use transform="matrix(0.008173828125000001,0,0,0.008173828125000001,10.274501953125002,0)" xlink:href="#P"/><use transform="matrix(0.008173828125000001,0,0,0.008173828125000001,19.846054687500004,0)" xlink:href="#P"/><use transform="matrix(0.008173828125000001,0,0,0.008173828125000001,29.417607421875,0)" xlink:href="#Q"/><use transform="matrix(0.008173828125000001,0,0,0.008173828125000001,39.4632421875,0)" xlink:href="#R"/><use transform="matrix(0.008173828125000001,0,0,0.008173828125000001,49.369921875,0)" xlink:href="#S"/><use transform="matrix(0.008173828125000001,0,0,0.008173828125000001,59.268427734375,0)" xlink:href="#T"/><use transform="matrix(0.008173828125000001,0,0,0.008173828125000001,64.76124023437501,0)" xlink:href="#V"/><use transform="matrix(0.008173828125000001,0,0,0.008173828125000001,72.95958984375001,0)" xlink:href="#W"/><use transform="matrix(0.008173828125000001,0,0,0.008173828125000001,77.02198242187501,0)" xlink:href="#X"/></g><path fill="#333" d="M87 0l247-1490h510c346 0 473 206 430 472s-238 479-586 479H366L277 0H87zm307-706h312c241 0 351-138 379-311s-39-306-279-306H496" id="Y"/><path fill="#333" d="M87 0l247-1490h191c-43 258-85 518-132 772 260-273 546-514 821-772h258L763-845 1226 0h-209L622-727 358-490 278 0H87" id="Z"/><path fill="#333" d="M168-520l22-126 1020-476-30 196-770 340-1 10 657 338-33 194" id="aa"/><path fill="#333" d="M1173-520L153-44l33-194 767-339v-11L301-926l29-196 865 476" id="ab"/><g id="c"><use transform="matrix(0.008173828125000001,0,0,0.008173828125000001,0,0)" xlink:href="#Y"/><use transform="matrix(0.008173828125000001,0,0,0.008173828125000001,10.691367187500001,0)" xlink:href="#Z"/><use transform="matrix(0.008173828125000001,0,0,0.008173828125000001,20.802392578125,0)" xlink:href="#aa"/><use transform="matrix(0.008173828125000001,0,0,0.008173828125000001,31.886103515625003,0)" xlink:href="#W"/><use transform="matrix(0.008173828125000001,0,0,0.008173828125000001,35.94849609375,0)" xlink:href="#S"/><use transform="matrix(0.008173828125000001,0,0,0.008173828125000001,45.847001953124995,0)" xlink:href="#T"/><use transform="matrix(0.008173828125000001,0,0,0.008173828125000001,51.339814453125,0)" xlink:href="#ab"/></g><path fill="#333" d="M492-1490L245 0H65l247-1490h180" id="ac"/><path fill="#333" d="M65 0l186-1118h175l-31 195c80-148 212-215 337-215 153 0 236 96 255 228 75-143 223-228 382-228 199 0 341 131 298 390L1543 0h-181l126-756c27-162-65-218-177-218-160 0-274 111-297 250L894 0H714l128-773c21-127-57-201-174-201-136 0-277 97-307 277L245 0H65" id="ad"/><g id="d"><use transform="matrix(0.008173828125000001,0,0,0.008173828125000001,0,0)" xlink:href="#ac"/><use transform="matrix(0.008173828125000001,0,0,0.008173828125000001,4.05421875,0)" xlink:href="#W"/><use transform="matrix(0.008173828125000001,0,0,0.008173828125000001,8.116611328125,0)" xlink:href="#ad"/><use transform="matrix(0.008173828125000001,0,0,0.008173828125000001,22.780458984375002,0)" xlink:href="#W"/><use transform="matrix(0.008173828125000001,0,0,0.008173828125000001,26.8428515625,0)" xlink:href="#T"/></g><g id="e"><use transform="matrix(0.008173828125000001,0,0,0.008173828125000001,0,0)" xlink:href="#W"/><use transform="matrix(0.008173828125000001,0,0,0.008173828125000001,4.062392578125,0)" xlink:href="#S"/><use transform="matrix(0.008173828125000001,0,0,0.008173828125000001,13.960898437500003,0)" xlink:href="#T"/></g><path fill="#333" d="M698 20c-339 0-559-226-559-600 0-470 305-930 790-930 306 0 529 181 531 489h-190c-8-202-157-313-348-313-373 0-599 380-599 749 0 281 158 429 382 429 202 0 399-111 474-313h191C1267-166 997 20 698 20" id="ae"/><path fill="#333" d="M66 0l185-1118h174l-28 172h12c78-136 219-209 411-185l-30 181c-211-47-398 67-428 250L246 0H66" id="af"/><path fill="#333" d="M226-1323l28-167h1126l-28 167H885L666 0H476l219-1323H226" id="ag"/><g id="f"><use transform="matrix(0.008173828125000001,0,0,0.008173828125000001,0,0)" xlink:href="#ae"/><use transform="matrix(0.008173828125000001,0,0,0.008173828125000001,12.219873046875001,0)" xlink:href="#U"/><use transform="matrix(0.008173828125000001,0,0,0.008173828125000001,22.494375000000005,0)" xlink:href="#af"/><use transform="matrix(0.008173828125000001,0,0,0.008173828125000001,28.526660156250003,0)" xlink:href="#X"/><use transform="matrix(0.008173828125000001,0,0,0.008173828125000001,38.784814453125,0)" xlink:href="#ag"/></g><g id="g"><use transform="matrix(0.008173828125000001,0,0,0.008173828125000001,0,0)" xlink:href="#P"/><use transform="matrix(0.008173828125000001,0,0,0.008173828125000001,9.571552734375,0)" xlink:href="#U"/><use transform="matrix(0.008173828125000001,0,0,0.008173828125000001,19.846054687500004,0)" xlink:href="#af"/><use transform="matrix(0.008173828125000001,0,0,0.008173828125000001,25.87833984375,0)" xlink:href="#X"/><use transform="matrix(0.008173828125000001,0,0,0.008173828125000001,36.136494140625,0)" xlink:href="#V"/><use transform="matrix(0.008173828125000001,0,0,0.008173828125000001,44.33484375,0)" xlink:href="#W"/><use transform="matrix(0.008173828125000001,0,0,0.008173828125000001,48.397236328125,0)" xlink:href="#X"/></g><path fill="#333" d="M451 24C217 22 71-78 61-277l174-29c11 123 90 172 219 172 161 0 280-83 297-181 11-71-30-117-135-143l-179-44c-195-48-280-153-253-316 31-186 223-314 455-314 233 4 337 107 366 275l-165 30c-18-80-65-152-204-152-138 0-256 75-272 174-13 77 32 118 158 149l162 40c195 48 278 154 252 313C904-113 708 24 451 24" id="ah"/><path fill="#333" d="M456 442C197 442 73 327 25 209l155-84c33 60 86 160 280 160 184 0 332-89 363-272l37-218-16 4C793-134 707-18 498-18 260-18 96-170 96-443c0-341 216-689 568-689 222 0 274 139 301 198l21-5 30-179h175L999 35c-48 288-275 407-543 407zm75-620c274 0 401-267 401-512 0-170-80-281-247-281-260 0-408 269-408 518 0 167 83 275 254 275" id="ai"/><g id="h"><use transform="matrix(0.008173828125000001,0,0,0.008173828125000001,0,0)" xlink:href="#Y"/><use transform="matrix(0.008173828125000001,0,0,0.008173828125000001,10.691367187500001,0)" xlink:href="#Z"/><use transform="matrix(0.008173828125000001,0,0,0.008173828125000001,20.802392578125,0)" xlink:href="#aa"/><use transform="matrix(0.008173828125000001,0,0,0.008173828125000001,31.886103515625003,0)" xlink:href="#ah"/><use transform="matrix(0.008173828125000001,0,0,0.008173828125000001,40.71383789062501,0)" xlink:href="#T"/><use transform="matrix(0.008173828125000001,0,0,0.008173828125000001,46.206650390625,0)" xlink:href="#af"/><use transform="matrix(0.008173828125000001,0,0,0.008173828125000001,52.778408203125,0)" xlink:href="#W"/><use transform="matrix(0.008173828125000001,0,0,0.008173828125000001,56.840800781249996,0)" xlink:href="#S"/><use transform="matrix(0.008173828125000001,0,0,0.008173828125000001,66.739306640625,0)" xlink:href="#ai"/><use transform="matrix(0.008173828125000001,0,0,0.008173828125000001,77.005634765625,0)" xlink:href="#ab"/></g><path fill="#333" d="M87 0l247-1490h901l-28 167H496l-85 512h643l-27 167H384L277 0H87" id="aj"/><g id="i"><use transform="matrix(0.008173828125000001,0,0,0.008173828125000001,0,0)" xlink:href="#aj"/><use transform="matrix(0.008173828125000001,0,0,0.008173828125000001,9.882158203125002,0)" xlink:href="#Z"/><use transform="matrix(0.008173828125000001,0,0,0.008173828125000001,19.993183593750004,0)" xlink:href="#aa"/><use transform="matrix(0.008173828125000001,0,0,0.008173828125000001,31.076894531250005,0)" xlink:href="#W"/><use transform="matrix(0.008173828125000001,0,0,0.008173828125000001,35.139287109375005,0)" xlink:href="#S"/><use transform="matrix(0.008173828125000001,0,0,0.008173828125000001,45.037792968750004,0)" xlink:href="#T"/><use transform="matrix(0.008173828125000001,0,0,0.008173828125000001,50.530605468750004,0)" xlink:href="#ab"/></g><path fill="#333" d="M592 24c-216 0-276-130-305-197h-18L239 0H65l247-1490h180l-92 551h15c51-63 134-193 344-193 246 0 401 170 401 447 0 348-211 709-568 709zm-24-161c267 0 411-296 411-543 0-170-78-291-250-291-269 0-405 284-405 542 0 177 81 292 244 292" id="ak"/><path fill="#333" d="M535 24C259 24 94-144 94-427c0-392 272-715 610-715 216 0 356 119 356 305 0 244-237 344-790 350-18 199 49 349 276 352 142 0 260-66 317-173l167 47C947-85 756 24 535 24zM294-623c447-4 586-57 586-218 0-85-78-141-194-141-220 0-342 177-392 359" id="al"/><g id="j"><use transform="matrix(0.008173828125000001,0,0,0.008173828125000001,0,0)" xlink:href="#P"/><use transform="matrix(0.008173828125000001,0,0,0.008173828125000001,9.571552734375,0)" xlink:href="#U"/><use transform="matrix(0.008173828125000001,0,0,0.008173828125000001,19.846054687500004,0)" xlink:href="#af"/><use transform="matrix(0.008173828125000001,0,0,0.008173828125000001,25.87833984375,0)" xlink:href="#X"/><use transform="matrix(0.008173828125000001,0,0,0.008173828125000001,36.136494140625,0)" xlink:href="#V"/><use transform="matrix(0.008173828125000001,0,0,0.008173828125000001,44.33484375,0)" xlink:href="#S"/><use transform="matrix(0.008173828125000001,0,0,0.008173828125000001,54.233349609375,0)" xlink:href="#R"/><use transform="matrix(0.008173828125000001,0,0,0.008173828125000001,64.140029296875,0)" xlink:href="#ad"/><use transform="matrix(0.008173828125000001,0,0,0.008173828125000001,78.803876953125,0)" xlink:href="#ak"/><use transform="matrix(0.008173828125000001,0,0,0.008173828125000001,89.06203125,0)" xlink:href="#al"/><use transform="matrix(0.008173828125000001,0,0,0.008173828125000001,98.698974609375,0)" xlink:href="#af"/></g><g id="k"><use transform="matrix(0.008173828125000001,0,0,0.008173828125000001,0,0)" xlink:href="#ah"/><use transform="matrix(0.008173828125000001,0,0,0.008173828125000001,8.827734375,0)" xlink:href="#T"/><use transform="matrix(0.008173828125000001,0,0,0.008173828125000001,14.320546875000002,0)" xlink:href="#af"/><use transform="matrix(0.008173828125000001,0,0,0.008173828125000001,20.8923046875,0)" xlink:href="#W"/><use transform="matrix(0.008173828125000001,0,0,0.008173828125000001,24.954697265625,0)" xlink:href="#S"/><use transform="matrix(0.008173828125000001,0,0,0.008173828125000001,34.85320312499999,0)" xlink:href="#ai"/></g><path fill="#333" d="M356-670L245 0H65l247-1490h180l-94 565c97-150 219-207 362-207 226 0 365 139 318 422L960 0H779l116-695c29-174-53-275-208-275-158 0-299 107-331 300" id="am"/><g id="l"><use transform="matrix(0.008173828125000001,0,0,0.008173828125000001,0,0)" xlink:href="#P"/><use transform="matrix(0.008173828125000001,0,0,0.008173828125000001,9.571552734375,0)" xlink:href="#U"/><use transform="matrix(0.008173828125000001,0,0,0.008173828125000001,19.846054687500004,0)" xlink:href="#af"/><use transform="matrix(0.008173828125000001,0,0,0.008173828125000001,25.87833984375,0)" xlink:href="#X"/><use transform="matrix(0.008173828125000001,0,0,0.008173828125000001,36.136494140625,0)" xlink:href="#am"/><use transform="matrix(0.008173828125000001,0,0,0.008173828125000001,46.035,0)" xlink:href="#Q"/><use transform="matrix(0.008173828125000001,0,0,0.008173828125000001,56.080634765625,0)" xlink:href="#ac"/><use transform="matrix(0.008173828125000001,0,0,0.008173828125000001,60.134853515625,0)" xlink:href="#X"/><use transform="matrix(0.008173828125000001,0,0,0.008173828125000001,70.3930078125,0)" xlink:href="#al"/><use transform="matrix(0.008173828125000001,0,0,0.008173828125000001,80.029951171875,0)" xlink:href="#af"/><use transform="matrix(0.008173828125000001,0,0,0.008173828125000001,86.340146484375,0)" xlink:href="#V"/><use transform="matrix(0.008173828125000001,0,0,0.008173828125000001,94.53849609375,0)" xlink:href="#S"/><use transform="matrix(0.008173828125000001,0,0,0.008173828125000001,104.43700195312502,0)" xlink:href="#U"/><use transform="matrix(0.008173828125000001,0,0,0.008173828125000001,114.71150390625,0)" xlink:href="#ad"/><use transform="matrix(0.008173828125000001,0,0,0.008173828125000001,129.37535156250001,0)" xlink:href="#al"/></g><path fill="#333" d="M-28 0l489-573-281-545h202c65 135 144 295 195 434 91-140 226-300 336-434h214L662-564 960 0H756c-70-143-156-309-211-458C447-309 301-142 185 0H-28" id="an"/><path fill="#333" d="M-4 418l255-1536h174l-30 179h9c47-68 143-193 355-193 246 0 401 170 401 447 0 348-211 709-568 709-219 0-274-140-300-202h-17l-99 596H-4zm572-555c267 0 411-296 411-543 0-170-78-291-250-291-269 0-405 284-405 542 0 177 81 292 244 292" id="ao"/><g id="m"><use transform="matrix(0.008173828125000001,0,0,0.008173828125000001,0,0)" xlink:href="#al"/><use transform="matrix(0.008173828125000001,0,0,0.008173828125000001,9.260947265625001,0)" xlink:href="#an"/><use transform="matrix(0.008173828125000001,0,0,0.008173828125000001,18.399287109375003,0)" xlink:href="#ao"/><use transform="matrix(0.008173828125000001,0,0,0.008173828125000001,28.65744140625,0)" xlink:href="#W"/><use transform="matrix(0.008173828125000001,0,0,0.008173828125000001,32.719833984375,0)" xlink:href="#af"/><use transform="matrix(0.008173828125000001,0,0,0.008173828125000001,38.752119140625,0)" xlink:href="#U"/><use transform="matrix(0.008173828125000001,0,0,0.008173828125000001,49.026621093749995,0)" xlink:href="#T"/><use transform="matrix(0.008173828125000001,0,0,0.008173828125000001,54.51943359375,0)" xlink:href="#W"/><use transform="matrix(0.008173828125000001,0,0,0.008173828125000001,58.581826171875,0)" xlink:href="#Q"/><use transform="matrix(0.008173828125000001,0,0,0.008173828125000001,68.6274609375,0)" xlink:href="#S"/><use transform="matrix(0.008173828125000001,0,0,0.008173828125000001,78.52596679687501,0)" xlink:href="#V"/><use transform="matrix(0.008173828125000001,0,0,0.008173828125000001,86.16032226562501,0)" xlink:href="#X"/><use transform="matrix(0.008173828125000001,0,0,0.008173828125000001,96.41847656250002,0)" xlink:href="#U"/><use transform="matrix(0.008173828125000001,0,0,0.008173828125000001,106.69297851562501,0)" xlink:href="#T"/><use transform="matrix(0.008173828125000001,0,0,0.008173828125000001,112.02231445312502,0)" xlink:href="#al"/></g><g id="n"><use transform="matrix(0.008173828125000001,0,0,0.008173828125000001,0,0)" xlink:href="#X"/><use transform="matrix(0.008173828125000001,0,0,0.008173828125000001,10.258154296875,0)" xlink:href="#U"/><use transform="matrix(0.008173828125000001,0,0,0.008173828125000001,20.532656250000002,0)" xlink:href="#T"/><use transform="matrix(0.008173828125000001,0,0,0.008173828125000001,25.8619921875,0)" xlink:href="#al"/></g><path fill="#333" d="M-19 405l72-156c121 32 203 15 288-150l47-93-241-1124h188c55 313 135 616 167 950 142-329 324-636 483-950h205L486 167c-97 177-219 259-378 259-59 0-109-11-127-21" id="ap"/><g id="o"><use transform="matrix(0.008173828125000001,0,0,0.008173828125000001,0,0)" xlink:href="#P"/><use transform="matrix(0.008173828125000001,0,0,0.008173828125000001,9.571552734375,0)" xlink:href="#U"/><use transform="matrix(0.008173828125000001,0,0,0.008173828125000001,19.846054687500004,0)" xlink:href="#af"/><use transform="matrix(0.008173828125000001,0,0,0.008173828125000001,25.87833984375,0)" xlink:href="#X"/><use transform="matrix(0.008173828125000001,0,0,0.008173828125000001,36.136494140625,0)" xlink:href="#V"/><use transform="matrix(0.008173828125000001,0,0,0.008173828125000001,43.770849609375,0)" xlink:href="#T"/><use transform="matrix(0.008173828125000001,0,0,0.008173828125000001,49.590615234375,0)" xlink:href="#ap"/><use transform="matrix(0.008173828125000001,0,0,0.008173828125000001,58.99869140625001,0)" xlink:href="#ao"/><use transform="matrix(0.008173828125000001,0,0,0.008173828125000001,69.25684570312501,0)" xlink:href="#al"/></g><path fill="#333" d="M87 0l247-1490h190L417-846h782l107-644h190L1249 0h-190l113-678H389L277 0H87" id="aq"/><g id="p"><use transform="matrix(0.008173828125000001,0,0,0.008173828125000001,0,0)" xlink:href="#O"/><use transform="matrix(0.008173828125000001,0,0,0.008173828125000001,11.549619140625001,0)" xlink:href="#P"/><use transform="matrix(0.008173828125000001,0,0,0.008173828125000001,21.121171875,0)" xlink:href="#P"/><use transform="matrix(0.008173828125000001,0,0,0.008173828125000001,30.692724609375002,0)" xlink:href="#Q"/><use transform="matrix(0.008173828125000001,0,0,0.008173828125000001,40.738359375,0)" xlink:href="#R"/><use transform="matrix(0.008173828125000001,0,0,0.008173828125000001,50.645039062500004,0)" xlink:href="#S"/><use transform="matrix(0.008173828125000001,0,0,0.008173828125000001,60.543544921875004,0)" xlink:href="#T"/><use transform="matrix(0.008173828125000001,0,0,0.008173828125000001,66.03635742187501,0)" xlink:href="#aq"/><use transform="matrix(0.008173828125000001,0,0,0.008173828125000001,78.47692382812501,0)" xlink:href="#W"/><use transform="matrix(0.008173828125000001,0,0,0.008173828125000001,82.53931640625001,0)" xlink:href="#ah"/><use transform="matrix(0.008173828125000001,0,0,0.008173828125000001,91.36705078125001,0)" xlink:href="#T"/><use transform="matrix(0.008173828125000001,0,0,0.008173828125000001,96.69638671875002,0)" xlink:href="#Q"/><use transform="matrix(0.008173828125000001,0,0,0.008173828125000001,106.74202148437502,0)" xlink:href="#af"/><use transform="matrix(0.008173828125000001,0,0,0.008173828125000001,113.31377929687501,0)" xlink:href="#ap"/></g><g id="q"><use transform="matrix(0.008173828125000001,0,0,0.008173828125000001,0,0)" xlink:href="#T"/><use transform="matrix(0.008173828125000001,0,0,0.008173828125000001,5.4928125,0)" xlink:href="#af"/><use transform="matrix(0.008173828125000001,0,0,0.008173828125000001,11.52509765625,0)" xlink:href="#U"/><use transform="matrix(0.008173828125000001,0,0,0.008173828125000001,21.799599609375,0)" xlink:href="#S"/><use transform="matrix(0.008173828125000001,0,0,0.008173828125000001,31.69810546875,0)" xlink:href="#ah"/><use transform="matrix(0.008173828125000001,0,0,0.008173828125000001,40.52583984375,0)" xlink:href="#U"/><use transform="matrix(0.008173828125000001,0,0,0.008173828125000001,50.800341796875,0)" xlink:href="#P"/><use transform="matrix(0.008173828125000001,0,0,0.008173828125000001,60.37189453125001,0)" xlink:href="#T"/><use transform="matrix(0.008173828125000001,0,0,0.008173828125000001,65.86470703125,0)" xlink:href="#W"/><use transform="matrix(0.008173828125000001,0,0,0.008173828125000001,69.927099609375,0)" xlink:href="#Q"/><use transform="matrix(0.008173828125000001,0,0,0.008173828125000001,79.972734375,0)" xlink:href="#S"/><use transform="matrix(0.008173828125000001,0,0,0.008173828125000001,89.87124023437501,0)" xlink:href="#V"/><use transform="matrix(0.008173828125000001,0,0,0.008173828125000001,98.06958984375001,0)" xlink:href="#W"/><use transform="matrix(0.008173828125000001,0,0,0.008173828125000001,102.13198242187501,0)" xlink:href="#X"/></g><path fill="#a9afb8" d="M135 0v-1490h997v253H440v360h640v249H440v375h694V0H135" id="ar"/><path fill="#a9afb8" d="M135 0v-1490h581c339 0 533 192 533 485 0 204-94 351-264 424L1302 0H964L680-532H440V0H135zm305-779h220c186 0 274-77 274-226 0-150-88-233-275-233H440v459" id="as"/><g id="r"><use transform="matrix(0.011907552083333333,0,0,0.011907552083333333,0,0)" xlink:href="#ar"/><use transform="matrix(0.011907552083333333,0,0,0.011907552083333333,14.812994791666666,0)" xlink:href="#as"/></g><path fill="#a9afb8" d="M659 0H135v-1490h529c448 0 721 280 721 744 0 466-273 746-726 746zM440-263h204c287 0 437-148 437-483 0-333-150-481-435-481H440v964" id="at"/><path fill="#a9afb8" d="M128 0v-1118h300V0H128zm150-1264c-91 0-165-68-165-154 0-85 74-154 165-154 90 0 165 69 165 154 0 86-75 154-165 154" id="au"/><path fill="#a9afb8" d="M440 22C227 22 68-92 68-313c0-250 202-322 422-343 195-21 271-24 271-105 0-95-63-149-175-149-116 0-187 57-211 129l-275-46c57-194 237-305 487-305 240 0 474 108 474 379V0H777v-155h-10C713-51 605 22 440 22zm85-211c140 0 238-93 238-211v-121c-37 26-156 42-222 51-111 16-185 59-185 149 0 87 70 132 169 132" id="av"/><path fill="#a9afb8" d="M625 442c-280 0-454-114-503-274l258-72c28 63 97 128 243 128 153 0 246-69 246-216v-206h-23C805-108 717-16 536-16 284-16 81-191 81-561c0-378 208-571 456-571 188 0 280 113 321 202h13v-188h295V-9c0 303-226 451-541 451zm5-686c153 0 240-119 240-319 0-198-86-329-240-329-158 0-241 137-241 329 0 195 85 319 241 319" id="aw"/><path fill="#a9afb8" d="M128 0v-1118h290v195h12c54-169 184-238 367-200v268c-27-8-86-15-130-15-138 0-239 95-239 234V0H128" id="ax"/><path fill="#a9afb8" d="M128 0v-1118h278l12 217c60-163 185-234 319-234 143 0 236 81 288 251 63-172 205-251 359-251 205 0 357 138 357 381V0h-301v-697c0-126-76-187-177-187-114 0-184 79-184 196V0H789v-705c0-109-72-179-174-179-106 0-187 74-187 208V0H128" id="ay"/><g id="s"><use transform="matrix(0.011907552083333333,0,0,0.011907552083333333,0,0)" xlink:href="#at"/><use transform="matrix(0.011907552083333333,0,0,0.011907552083333333,17.61126953125,0)" xlink:href="#au"/><use transform="matrix(0.011907552083333333,0,0,0.011907552083333333,24.219960937499998,0)" xlink:href="#av"/><use transform="matrix(0.011907552083333333,0,0,0.011907552083333333,38.37804036458333,0)" xlink:href="#aw"/><use transform="matrix(0.011907552083333333,0,0,0.011907552083333333,53.78641276041665,0)" xlink:href="#ax"/><use transform="matrix(0.011907552083333333,0,0,0.011907552083333333,63.38389973958332,0)" xlink:href="#av"/><use transform="matrix(0.011907552083333333,0,0,0.011907552083333333,77.54197916666666,0)" xlink:href="#ay"/></g><path fill="#a9afb8" d="M135 0v-1490h581c339 0 533 210 533 503 0 295-197 500-540 500H440V0H135zm305-733h220c186 0 274-104 274-254s-88-251-275-251H440v505" id="az"/><path fill="#a9afb8" d="M120 396l69-226c123 42 245 23 254-107l8-60L31-1118h319c87 288 199 559 259 872 72-308 185-583 277-872h315L726 132c-68 181-186 294-410 294-79 0-153-13-196-30" id="aA"/><path fill="#a9afb8" d="M633 22C291 22 81-200 81-553c0-345 210-579 537-579 292 0 525 185 525 567v84H378c7 183 109 277 260 277 105 0 184-46 216-132l272 51C1071-99 893 22 633 22zM380-669h474c-15-146-94-237-233-237-143 0-229 99-241 237" id="aB"/><path fill="#a9afb8" d="M428-647V0H128v-1118h283l4 231c63-156 176-245 348-245 232 0 384 159 384 421V0H847v-659c0-139-76-222-202-222-128 0-217 86-217 234" id="aC"/><path fill="#a9afb8" d="M683-1118v229H474v562c0 71 29 104 102 104 23 0 73-7 95-13l43 225C647 9 580 16 520 16 296 16 174-96 174-301v-588H20v-229h154v-266h300v266h209" id="aD"/><g id="t"><use transform="matrix(0.011907552083333333,0,0,0.011907552083333333,0,0)" xlink:href="#az"/><use transform="matrix(0.011907552083333333,0,0,0.011907552083333333,15.491725260416667,0)" xlink:href="#av"/><use transform="matrix(0.011907552083333333,0,0,0.011907552083333333,29.233040364583335,0)" xlink:href="#aA"/><use transform="matrix(0.011907552083333333,0,0,0.011907552083333333,43.91505208333333,0)" xlink:href="#ay"/><use transform="matrix(0.011907552083333333,0,0,0.011907552083333333,66.17026692708333,0)" xlink:href="#aB"/><use transform="matrix(0.011907552083333333,0,0,0.011907552083333333,80.69748046875,0)" xlink:href="#aC"/><use transform="matrix(0.011907552083333333,0,0,0.011907552083333333,95.879609375,0)" xlink:href="#aD"/></g><path fill="#a9afb8" d="M49 0l509-1490h400L1480 0h-339l-115-346H497L386 0H49zm524-585h374c-75-213-124-402-192-666-66 268-110 453-182 666" id="aE"/><path fill="#a9afb8" d="M128 418v-1536h295v188h14c41-89 129-202 319-202 248 0 453 193 453 575 0 372-197 576-455 576-183 0-275-108-317-198h-9v597H128zm534-640c156 0 240-139 240-336 0-196-83-334-240-334-154 0-241 131-241 334 0 202 88 336 241 336" id="aF"/><g id="u"><use transform="matrix(0.011907552083333333,0,0,0.011907552083333333,0,0)" xlink:href="#aE"/><use transform="matrix(0.011907552083333333,0,0,0.011907552083333333,18.206647135416667,0)" xlink:href="#aF"/><use transform="matrix(0.011907552083333333,0,0,0.011907552083333333,33.579296875,0)" xlink:href="#aF"/></g><path fill="#a9afb8" d="M52 0l541-1490h220L1361 0h-200l-149-416H398L254 0H52zm404-582h497c-103-290-145-390-251-756-108 377-145 460-246 756" id="aG"/><path fill="#a9afb8" d="M338-1490V0H158v-1490h180" id="aH"/><path fill="#a9afb8" d="M481 0L54-1118h197c107 314 236 620 325 951 87-331 217-637 324-951h197L670 0H481" id="aI"/><path fill="#a9afb8" d="M471 26C259 26 90-98 90-318c0-256 228-303 435-329 202-27 287-16 287-108 0-139-79-219-234-219-161 0-248 86-283 164l-173-57c86-203 278-265 451-265 150 0 419 46 419 395V0H815v-152h-12C765-73 660 26 471 26zm31-159c199 0 310-134 310-271v-155c-30 35-226 55-295 64-131 17-246 59-246 186 0 116 97 176 231 176" id="aJ"/><path fill="#a9afb8" d="M158 0v-1118h174v172h12c41-113 157-188 290-188 26 0 70 2 91 3v181c-11-2-60-10-108-10-161 0-279 109-279 260V0H158" id="aK"/><path fill="#a9afb8" d="M613 24c-304 0-509-231-509-576 0-350 205-580 509-580 305 0 511 230 511 580 0 345-206 576-511 576zm0-161c226 0 329-195 329-415 0-222-103-419-329-419-223 0-326 196-326 419 0 220 103 415 326 415" id="aL"/><g id="v"><use transform="matrix(0.006946072048611111,0,0,0.006946072048611111,0,0)" xlink:href="#aG"/><use transform="matrix(0.006946072048611111,0,0,0.006946072048611111,9.8147998046875,0)" xlink:href="#aH"/><use transform="matrix(0.006946072048611111,0,0,0.006946072048611111,13.329512261284721,0)" xlink:href="#aI"/><use transform="matrix(0.006946072048611111,0,0,0.006946072048611111,21.25498046875,0)" xlink:href="#aJ"/><use transform="matrix(0.006946072048611111,0,0,0.006946072048611111,29.242963324652777,0)" xlink:href="#aK"/><use transform="matrix(0.006946072048611111,0,0,0.006946072048611111,34.36221842447917,0)" xlink:href="#aL"/></g><path fill="#a9afb8" d="M180 0v-1490h270l367 940c28 72 75 218 110 339 35-117 81-264 110-339l362-940h271V0h-187c2-448-5-837 7-1287-157 497-311 829-483 1287H842C666-458 514-784 354-1284c12 438 5 843 7 1284H180" id="aM"/><path fill="#a9afb8" d="M628 24c-324 0-524-230-524-574 0-343 198-582 503-582 237 0 487 146 487 559v75H286c9 234 145 362 343 362 132 0 231-58 273-172l174 48C1024-91 857 24 628 24zM287-650h624c-17-190-120-322-304-322-192 0-309 151-320 322" id="aN"/><path fill="#a9afb8" d="M538 24C308 24 148-78 108-271l171-41c32 123 123 178 257 178 156 0 256-77 256-169 0-77-54-128-164-154l-186-44c-203-48-300-148-300-305 0-192 176-326 414-326 230 0 351 112 402 269l-163 42c-31-80-94-158-238-158-133 0-233 69-233 162 0 83 57 129 188 160l169 40c203 48 298 149 298 302 0 196-179 339-441 339" id="aO"/><g id="w"><use transform="matrix(0.006946072048611111,0,0,0.006946072048611111,0,0)" xlink:href="#aM"/><use transform="matrix(0.006946072048611111,0,0,0.006946072048611111,12.850233289930555,0)" xlink:href="#aL"/><use transform="matrix(0.006946072048611111,0,0,0.006946072048611111,21.380009765624997,0)" xlink:href="#aK"/><use transform="matrix(0.006946072048611111,0,0,0.006946072048611111,26.735431315104165,0)" xlink:href="#aJ"/><use transform="matrix(0.006946072048611111,0,0,0.006946072048611111,34.723414171006944,0)" xlink:href="#aH"/><use transform="matrix(0.006946072048611111,0,0,0.006946072048611111,38.168665907118054,0)" xlink:href="#aN"/><use transform="matrix(0.006946072048611111,0,0,0.006946072048611111,46.46227593315972,0)" xlink:href="#aO"/></g><path fill="#a9afb8" d="M1096 418H916v-591h-14C865-111 790 24 577 24c-279 0-473-224-473-580 0-354 195-576 474-576 218 0 287 134 324 193h20v-179h174V418zM604-137c203 0 314-172 314-421 0-247-108-413-314-413-212 0-317 181-317 413 0 235 108 421 317 421" id="aP"/><path fill="#a9afb8" d="M537 14c-226 0-379-139-379-422v-710h180v695c0 172 97 275 253 275 160 0 281-109 281-300v-670h181V0H879v-209C806-46 684 14 537 14" id="aQ"/><path fill="#a9afb8" d="M126 0v-134l627-806v-11H146v-167h839v143L376-178v11h629V0H126" id="aR"/><g id="x"><use transform="matrix(0.006946072048611111,0,0,0.006946072048611111,0,0)" xlink:href="#aM"/><use transform="matrix(0.006946072048611111,0,0,0.006946072048611111,12.850233289930555,0)" xlink:href="#aJ"/><use transform="matrix(0.006946072048611111,0,0,0.006946072048611111,20.838216145833332,0)" xlink:href="#aK"/><use transform="matrix(0.006946072048611111,0,0,0.006946072048611111,25.957471245659722,0)" xlink:href="#aP"/><use transform="matrix(0.006946072048611111,0,0,0.006946072048611111,34.66784559461806,0)" xlink:href="#aQ"/><use transform="matrix(0.006946072048611111,0,0,0.006946072048611111,43.07953884548611,0)" xlink:href="#aN"/><use transform="matrix(0.006946072048611111,0,0,0.006946072048611111,51.16476671006944,0)" xlink:href="#aR"/></g><path fill="#a9afb8" d="M419-1970V480H262v-2450h157" id="aS"/><use transform="matrix(0.006946072048611111,0,0,0.006946072048611111,0,0)" xlink:href="#aS" id="y"/><path fill="#a9afb8" d="M180 0v-1490h901v168H370v510h643v168H370V0H180" id="aT"/><path fill="#a9afb8" d="M677 24c-213 0-288-135-325-197h-20V0H158v-1490h180v551h14c37-59 106-193 324-193 279 0 474 222 474 576 0 356-194 580-473 580zm-27-161c209 0 317-186 317-421 0-232-105-413-317-413-206 0-314 166-314 413 0 249 111 421 314 421" id="aU"/><path fill="#a9afb8" d="M140 405l46-156c120 36 205 19 263-150l32-93L54-1118h197c107 313 237 620 324 950 87-331 219-637 326-950h196L606 167c-68 178-176 259-334 259-64 0-113-12-132-21" id="aV"/><g id="z"><use transform="matrix(0.006946072048611111,0,0,0.006946072048611111,0,0)" xlink:href="#aT"/><use transform="matrix(0.006946072048611111,0,0,0.006946072048611111,7.835169270833333,0)" xlink:href="#aN"/><use transform="matrix(0.006946072048611111,0,0,0.006946072048611111,16.128779296875,0)" xlink:href="#aU"/><use transform="matrix(0.006946072048611111,0,0,0.006946072048611111,24.83915364583333,0)" xlink:href="#aK"/><use transform="matrix(0.006946072048611111,0,0,0.006946072048611111,30.1945751953125,0)" xlink:href="#aQ"/><use transform="matrix(0.006946072048611111,0,0,0.006946072048611111,38.60626844618055,0)" xlink:href="#aJ"/><use transform="matrix(0.006946072048611111,0,0,0.006946072048611111,46.59425130208333,0)" xlink:href="#aK"/><use transform="matrix(0.006946072048611111,0,0,0.006946072048611111,52.171947157118055,0)" xlink:href="#aV"/></g><path fill="#a9afb8" d="M646 20c-249 0-524-159-524-708 0-524 209-822 547-822 250 0 431 161 467 395H950c-33-129-126-227-281-227-229 0-367 208-367 566h12c80-124 212-198 367-198 255 0 467 205 467 493 0 278-198 501-502 501zm0-167c179 0 318-148 318-334 0-182-133-328-313-328-181 0-322 156-322 330 0 176 134 332 317 332" id="aW"/><path fill="#a9afb8" d="M128 359l88-567h206L266 359H128" id="aX"/><g id="A"><use transform="matrix(0.006946072048611111,0,0,0.006946072048611111,0,0)" xlink:href="#aW"/><use transform="matrix(0.006946072048611111,0,0,0.006946072048611111,8.821511501736111,0)" xlink:href="#aX"/></g><path fill="#a9afb8" d="M154 0v-137l495-537c165-179 249-281 249-418 0-156-121-253-280-253-170 0-278 110-278 278H158c0-264 200-443 465-443 266 0 455 183 455 416 0 161-73 288-336 568L416-179v12h687V0H154" id="aY"/><path fill="#a9afb8" d="M646 20c-332 0-524-278-524-764 0-483 194-766 524-766s524 283 524 766c0 485-191 764-524 764zm0-166c218 0 341-220 341-598 0-380-123-601-341-601s-341 222-341 601c0 378 123 598 341 598" id="aZ"/><path fill="#a9afb8" d="M626 20c-262 0-458-168-468-396h184c12 133 134 229 284 229 180 0 311-137 311-326 0-192-136-335-323-335-92 0-196 33-255 78l-178-22 88-738h784v167H429l-51 435h8c61-51 160-87 263-87 273 0 474 211 474 499 0 286-210 496-497 496" id="ba"/><g id="B"><use transform="matrix(0.006946072048611111,0,0,0.006946072048611111,0,0)" xlink:href="#aY"/><use transform="matrix(0.006946072048611111,0,0,0.006946072048611111,8.675643988715278,0)" xlink:href="#aZ"/><use transform="matrix(0.006946072048611111,0,0,0.006946072048611111,17.649969075520833,0)" xlink:href="#aY"/><use transform="matrix(0.006946072048611111,0,0,0.006946072048611111,26.32561306423611,0)" xlink:href="#ba"/></g><g id="C"><use transform="matrix(0.008173828125000001,0,0,0.008173828125000001,0,0)" xlink:href="#ag"/><use transform="matrix(0.008173828125000001,0,0,0.008173828125000001,9.873984375000001,0)" xlink:href="#af"/><use transform="matrix(0.008173828125000001,0,0,0.008173828125000001,15.90626953125,0)" xlink:href="#U"/><use transform="matrix(0.008173828125000001,0,0,0.008173828125000001,26.180771484375,0)" xlink:href="#S"/><use transform="matrix(0.008173828125000001,0,0,0.008173828125000001,36.07927734375,0)" xlink:href="#ah"/><use transform="matrix(0.008173828125000001,0,0,0.008173828125000001,44.90701171875,0)" xlink:href="#U"/><use transform="matrix(0.008173828125000001,0,0,0.008173828125000001,55.181513671875,0)" xlink:href="#P"/><use transform="matrix(0.008173828125000001,0,0,0.008173828125000001,64.75306640625,0)" xlink:href="#T"/><use transform="matrix(0.008173828125000001,0,0,0.008173828125000001,70.24587890625,0)" xlink:href="#W"/><use transform="matrix(0.008173828125000001,0,0,0.008173828125000001,74.308271484375,0)" xlink:href="#Q"/><use transform="matrix(0.008173828125000001,0,0,0.008173828125000001,84.35390625,0)" xlink:href="#S"/><use transform="matrix(0.008173828125000001,0,0,0.008173828125000001,93.108076171875,0)" xlink:href="#ag"/><use transform="matrix(0.008173828125000001,0,0,0.008173828125000001,102.622412109375,0)" xlink:href="#U"/><use transform="matrix(0.008173828125000001,0,0,0.008173828125000001,112.8969140625,0)" xlink:href="#ak"/><use transform="matrix(0.008173828125000001,0,0,0.008173828125000001,123.15506835937501,0)" xlink:href="#ac"/><use transform="matrix(0.008173828125000001,0,0,0.008173828125000001,127.20928710937501,0)" xlink:href="#al"/></g><g id="D"><use transform="matrix(0.008173828125000001,0,0,0.008173828125000001,0,0)" xlink:href="#aj"/><use transform="matrix(0.008173828125000001,0,0,0.008173828125000001,9.882158203125002,0)" xlink:href="#Z"/><use transform="matrix(0.008173828125000001,0,0,0.008173828125000001,19.993183593750004,0)" xlink:href="#aa"/><use transform="matrix(0.008173828125000001,0,0,0.008173828125000001,31.076894531250005,0)" xlink:href="#ah"/><use transform="matrix(0.008173828125000001,0,0,0.008173828125000001,39.904628906250004,0)" xlink:href="#T"/><use transform="matrix(0.008173828125000001,0,0,0.008173828125000001,45.39744140625,0)" xlink:href="#af"/><use transform="matrix(0.008173828125000001,0,0,0.008173828125000001,51.96919921875,0)" xlink:href="#W"/><use transform="matrix(0.008173828125000001,0,0,0.008173828125000001,56.031591796875,0)" xlink:href="#S"/><use transform="matrix(0.008173828125000001,0,0,0.008173828125000001,65.93009765625,0)" xlink:href="#ai"/><use transform="matrix(0.008173828125000001,0,0,0.008173828125000001,76.19642578125,0)" xlink:href="#ab"/></g><g id="E"><use transform="matrix(0.008173828125000001,0,0,0.008173828125000001,0,0)" xlink:href="#T"/><use transform="matrix(0.008173828125000001,0,0,0.008173828125000001,5.4928125,0)" xlink:href="#af"/><use transform="matrix(0.008173828125000001,0,0,0.008173828125000001,11.52509765625,0)" xlink:href="#U"/><use transform="matrix(0.008173828125000001,0,0,0.008173828125000001,21.799599609375,0)" xlink:href="#S"/><use transform="matrix(0.008173828125000001,0,0,0.008173828125000001,31.69810546875,0)" xlink:href="#ah"/><use transform="matrix(0.008173828125000001,0,0,0.008173828125000001,40.52583984375,0)" xlink:href="#U"/><use transform="matrix(0.008173828125000001,0,0,0.008173828125000001,50.800341796875,0)" xlink:href="#P"/><use transform="matrix(0.008173828125000001,0,0,0.008173828125000001,60.37189453125001,0)" xlink:href="#T"/><use transform="matrix(0.008173828125000001,0,0,0.008173828125000001,65.86470703125,0)" xlink:href="#W"/><use transform="matrix(0.008173828125000001,0,0,0.008173828125000001,69.927099609375,0)" xlink:href="#Q"/><use transform="matrix(0.008173828125000001,0,0,0.008173828125000001,79.972734375,0)" xlink:href="#S"/><use transform="matrix(0.008173828125000001,0,0,0.008173828125000001,89.87124023437501,0)" xlink:href="#V"/><use transform="matrix(0.008173828125000001,0,0,0.008173828125000001,97.50559570312501,0)" xlink:href="#T"/><use transform="matrix(0.008173828125000001,0,0,0.008173828125000001,102.99840820312501,0)" xlink:href="#W"/><use transform="matrix(0.008173828125000001,0,0,0.008173828125000001,107.06080078125001,0)" xlink:href="#ad"/><use transform="matrix(0.008173828125000001,0,0,0.008173828125000001,121.72464843750001,0)" xlink:href="#al"/></g><g id="F"><use transform="matrix(0.008173828125000001,0,0,0.008173828125000001,0,0)" xlink:href="#X"/><use transform="matrix(0.008173828125000001,0,0,0.008173828125000001,10.258154296875,0)" xlink:href="#U"/><use transform="matrix(0.008173828125000001,0,0,0.008173828125000001,20.532656250000002,0)" xlink:href="#T"/><use transform="matrix(0.008173828125000001,0,0,0.008173828125000001,25.8619921875,0)" xlink:href="#al"/><use transform="matrix(0.008173828125000001,0,0,0.008173828125000001,35.498935546875,0)" xlink:href="#T"/><use transform="matrix(0.008173828125000001,0,0,0.008173828125000001,40.991748046875,0)" xlink:href="#W"/><use transform="matrix(0.008173828125000001,0,0,0.008173828125000001,45.054140625,0)" xlink:href="#ad"/><use transform="matrix(0.008173828125000001,0,0,0.008173828125000001,59.71798828125,0)" xlink:href="#al"/></g><g id="G"><use transform="matrix(0.008173828125000001,0,0,0.008173828125000001,0,0)" xlink:href="#U"/><use transform="matrix(0.008173828125000001,0,0,0.008173828125000001,10.274501953125002,0)" xlink:href="#ad"/><use transform="matrix(0.008173828125000001,0,0,0.008173828125000001,24.938349609375003,0)" xlink:href="#Q"/><use transform="matrix(0.008173828125000001,0,0,0.008173828125000001,34.983984375000006,0)" xlink:href="#R"/><use transform="matrix(0.008173828125000001,0,0,0.008173828125000001,44.89066406250001,0)" xlink:href="#S"/><use transform="matrix(0.008173828125000001,0,0,0.008173828125000001,54.78916992187501,0)" xlink:href="#T"/></g><g id="H"><use transform="matrix(0.008173828125000001,0,0,0.008173828125000001,0,0)" xlink:href="#ad"/><use transform="matrix(0.008173828125000001,0,0,0.008173828125000001,14.663847656250002,0)" xlink:href="#al"/><use transform="matrix(0.008173828125000001,0,0,0.008173828125000001,24.300791015625002,0)" xlink:href="#af"/><use transform="matrix(0.008173828125000001,0,0,0.008173828125000001,30.333076171875,0)" xlink:href="#P"/><use transform="matrix(0.008173828125000001,0,0,0.008173828125000001,39.90462890625,0)" xlink:href="#am"/><use transform="matrix(0.008173828125000001,0,0,0.008173828125000001,49.803134765624996,0)" xlink:href="#U"/><use transform="matrix(0.008173828125000001,0,0,0.008173828125000001,60.07763671875,0)" xlink:href="#S"/><use transform="matrix(0.008173828125000001,0,0,0.008173828125000001,69.976142578125,0)" xlink:href="#T"/><use transform="matrix(0.008173828125000001,0,0,0.008173828125000001,75.468955078125,0)" xlink:href="#V"/><use transform="matrix(0.008173828125000001,0,0,0.008173828125000001,83.6673046875,0)" xlink:href="#W"/><use transform="matrix(0.008173828125000001,0,0,0.008173828125000001,87.729697265625,0)" xlink:href="#X"/></g><path fill="#333" d="M87 0l247-1490h270l211 940c16 74 39 220 54 339 57-123 125-267 165-339l519-940h271L1577 0h-187c75-441 134-849 220-1287C1371-790 1163-459 914 0H749C649-458 553-779 473-1282 408-826 339-440 268 0H87" id="bb"/><g id="I"><use transform="matrix(0.008173828125000001,0,0,0.008173828125000001,0,0)" xlink:href="#bb"/><use transform="matrix(0.008173828125000001,0,0,0.008173828125000001,15.121582031250002,0)" xlink:href="#al"/><use transform="matrix(0.008173828125000001,0,0,0.008173828125000001,24.758525390625003,0)" xlink:href="#af"/><use transform="matrix(0.008173828125000001,0,0,0.008173828125000001,30.790810546875,0)" xlink:href="#P"/><use transform="matrix(0.008173828125000001,0,0,0.008173828125000001,40.36236328125,0)" xlink:href="#am"/><use transform="matrix(0.008173828125000001,0,0,0.008173828125000001,50.260869140625,0)" xlink:href="#U"/><use transform="matrix(0.008173828125000001,0,0,0.008173828125000001,60.53537109375,0)" xlink:href="#S"/><use transform="matrix(0.008173828125000001,0,0,0.008173828125000001,70.43387695312501,0)" xlink:href="#T"/></g><g id="J"><use transform="matrix(0.008173828125000001,0,0,0.008173828125000001,0,0)" xlink:href="#ad"/><use transform="matrix(0.008173828125000001,0,0,0.008173828125000001,14.663847656250002,0)" xlink:href="#al"/><use transform="matrix(0.008173828125000001,0,0,0.008173828125000001,24.300791015625002,0)" xlink:href="#af"/><use transform="matrix(0.008173828125000001,0,0,0.008173828125000001,30.333076171875,0)" xlink:href="#P"/><use transform="matrix(0.008173828125000001,0,0,0.008173828125000001,39.90462890625,0)" xlink:href="#am"/><use transform="matrix(0.008173828125000001,0,0,0.008173828125000001,49.803134765624996,0)" xlink:href="#U"/><use transform="matrix(0.008173828125000001,0,0,0.008173828125000001,60.07763671875,0)" xlink:href="#S"/><use transform="matrix(0.008173828125000001,0,0,0.008173828125000001,69.976142578125,0)" xlink:href="#T"/></g><path fill="#333" d="M780-1118l-24 146H497L317 116C281 334 148 448-56 448c-43 0-82-5-117-17l45-161c143 34 239 0 264-153L316-972H89l24-146h227l13-77c43-287 254-417 541-345l-50 154c-23-5-81-8-121-8-107 0-167 63-189 196l-13 80h259" id="bc"/><g id="K"><use transform="matrix(0.008173828125000001,0,0,0.008173828125000001,0,0)" xlink:href="#ad"/><use transform="matrix(0.008173828125000001,0,0,0.008173828125000001,14.663847656250002,0)" xlink:href="#al"/><use transform="matrix(0.008173828125000001,0,0,0.008173828125000001,24.300791015625002,0)" xlink:href="#af"/><use transform="matrix(0.008173828125000001,0,0,0.008173828125000001,30.333076171875,0)" xlink:href="#P"/><use transform="matrix(0.008173828125000001,0,0,0.008173828125000001,39.90462890625,0)" xlink:href="#am"/><use transform="matrix(0.008173828125000001,0,0,0.008173828125000001,49.803134765624996,0)" xlink:href="#U"/><use transform="matrix(0.008173828125000001,0,0,0.008173828125000001,60.07763671875,0)" xlink:href="#S"/><use transform="matrix(0.008173828125000001,0,0,0.008173828125000001,69.976142578125,0)" xlink:href="#T"/><use transform="matrix(0.008173828125000001,0,0,0.008173828125000001,75.468955078125,0)" xlink:href="#V"/><use transform="matrix(0.008173828125000001,0,0,0.008173828125000001,83.10331054687501,0)" xlink:href="#bc"/><use transform="matrix(0.008173828125000001,0,0,0.008173828125000001,88.85768554687503,0)" xlink:href="#al"/><use transform="matrix(0.008173828125000001,0,0,0.008173828125000001,98.49462890625001,0)" xlink:href="#al"/></g><path fill="#333" d="M524-1490L277 0H87l247-1490h190" id="bd"/><g id="L"><use transform="matrix(0.008173828125000001,0,0,0.008173828125000001,0,0)" xlink:href="#ae"/><use transform="matrix(0.008173828125000001,0,0,0.008173828125000001,12.219873046875001,0)" xlink:href="#U"/><use transform="matrix(0.008173828125000001,0,0,0.008173828125000001,22.494375000000005,0)" xlink:href="#af"/><use transform="matrix(0.008173828125000001,0,0,0.008173828125000001,28.526660156250003,0)" xlink:href="#X"/><use transform="matrix(0.008173828125000001,0,0,0.008173828125000001,38.784814453125,0)" xlink:href="#bd"/><use transform="matrix(0.008173828125000001,0,0,0.008173828125000001,43.280419921874994,0)" xlink:href="#ah"/><use transform="matrix(0.008173828125000001,0,0,0.008173828125000001,52.108154296875,0)" xlink:href="#ah"/><use transform="matrix(0.008173828125000001,0,0,0.008173828125000001,60.935888671875,0)" xlink:href="#R"/><use transform="matrix(0.008173828125000001,0,0,0.008173828125000001,70.842568359375,0)" xlink:href="#al"/><use transform="matrix(0.008173828125000001,0,0,0.008173828125000001,80.47951171874999,0)" xlink:href="#af"/><use transform="matrix(0.008173828125000001,0,0,0.008173828125000001,86.78970703124999,0)" xlink:href="#ah"/></g><g id="M"><use transform="matrix(0.008173828125000001,0,0,0.008173828125000001,0,0)" xlink:href="#W"/><use transform="matrix(0.008173828125000001,0,0,0.008173828125000001,4.062392578125,0)" xlink:href="#ah"/><use transform="matrix(0.008173828125000001,0,0,0.008173828125000001,12.890126953125002,0)" xlink:href="#ah"/><use transform="matrix(0.008173828125000001,0,0,0.008173828125000001,21.717861328125004,0)" xlink:href="#R"/><use transform="matrix(0.008173828125000001,0,0,0.008173828125000001,31.624541015625006,0)" xlink:href="#al"/><use transform="matrix(0.008173828125000001,0,0,0.008173828125000001,41.26148437500001,0)" xlink:href="#af"/></g><g id="N"><use transform="matrix(0.008173828125000001,0,0,0.008173828125000001,0,0)" xlink:href="#W"/><use transform="matrix(0.008173828125000001,0,0,0.008173828125000001,4.062392578125,0)" xlink:href="#ah"/><use transform="matrix(0.008173828125000001,0,0,0.008173828125000001,12.890126953125002,0)" xlink:href="#ah"/><use transform="matrix(0.008173828125000001,0,0,0.008173828125000001,21.717861328125004,0)" xlink:href="#R"/><use transform="matrix(0.008173828125000001,0,0,0.008173828125000001,31.624541015625006,0)" xlink:href="#al"/><use transform="matrix(0.008173828125000001,0,0,0.008173828125000001,41.26148437500001,0)" xlink:href="#af"/><use transform="matrix(0.008173828125000001,0,0,0.008173828125000001,47.57167968750001,0)" xlink:href="#V"/><use transform="matrix(0.008173828125000001,0,0,0.008173828125000001,55.20603515625,0)" xlink:href="#bc"/><use transform="matrix(0.008173828125000001,0,0,0.008173828125000001,60.96041015625001,0)" xlink:href="#al"/><use transform="matrix(0.008173828125000001,0,0,0.008173828125000001,70.59735351562502,0)" xlink:href="#al"/></g></defs></g></svg>